<svg width="512" height="512" xmlns="http://www.w3.org/2000/svg">
  <g
     id="small-beard" />
  <path
     fill="#HAIR"
     d="m 169.47869,231.0291 8.12252,16.43837 8.86093,14.38356 9.59933,8.90411 10.33776,6.84932 10.33781,6.16438 14.02984,4.79452 15.95629,3.78851 20.22598,-0.27829 19.19878,-3.51022 18.46034,-6.84932 10.33781,-9.58905 9.89868,-10.42743 6.34643,-9.43562 8.12258,-13.69865 2.0421,-7.29702 -2.27889,0.23054 -7.14734,2.95688 -11.07621,6.16439 -12.71015,6.81189 -19.78,5.51688 -21.34998,4.43066 c 0,0 -7.7232,-12.3684 -14.091,-11.58102 -5.32387,0.65829 -14.92524,12.5219 -14.92524,12.5219 l -17.56776,-3.31674 -12.55301,-2.73973 -9.59937,-4.1096 -14.76826,-6.84931 -14.02994,-10.27391 z"
     id="path866" />
  <path
     fill="#HAIR"
     d="m 201.07606,222.52463 10.07364,-5.65709 11.9052,-4.11426 14.65253,-2.57141 16.5835,-0.19921 13.6374,0.19921 12.82098,2.57141 8.24205,2.05712 9.15784,3.59997 3.66312,4.11426 -12.20321,-2.90974 -12.20082,-2.56859 -9.31116,-0.96322 h -16.05372 l -16.3748,0.32107 -11.55868,1.60537 -11.55867,2.24752 -11.4752,2.26759"
     id="path876" />
</svg>
