<svg width="512" height="512" xmlns="http://www.w3.org/2000/svg">

<g id="small-beard">
   <path fill="#000000" stroke-width="null" stroke-opacity="null" fill-opacity="0.6" id="svg_52" d="m167.22591,226.89901c0,0 0,0.68493 0,0.68493c0,0 0.747,0.68493 0.747,0.68493c0,0.68493 0.74702,0.68493 0.74702,0.68493c0,0.68493 0,0.68493 0.747,1.36986c0,0 -0.52822,0.20061 0,0.68494c0.52821,0.48432 0.747,0 0.747,0c0,0.68493 0,0.68493 0,0.68493c0,0.68493 0,0.68493 0,0.68493c0,0.68493 0.747,0.68493 0.747,0.68493c0,0.68493 0,0.68493 0,0.68493c0,0.68493 0,0.68493 0,0.68493c0.747,0.68493 0.46113,1.42201 0.747,2.05481c0.40427,0.8949 0.21879,0.88554 0.747,1.36986c0.52821,0.48432 0.747,0.68493 0.747,0.68493c0,0 0.21879,0.2006 0.74702,0.68493c0.52821,0.48432 0,0.68493 0,1.36988c0,0 0,0 0.747,0.68493c0,0 0,0.68493 0,0.68493c0,0.68493 0.21879,0.20061 0.747,0.68493c0.52821,0.48432 0,0.68493 0,0.68493c0,0.68493 0.747,0.68493 0.747,0.68493c0,0 0,0.68493 0,0.68493c0,0 0.747,0 0.747,0.68494c0,0 0,0 0,0c0.747,0.68493 0.747,0.68493 0.747,0.68493c0,0.68493 0,0.68493 0.747,1.36986c0,0 0,0 0,0.68493c0,0 0.74702,0.68493 0.74702,0.68493c0,0 0,0.68493 0.747,0.68493c0,0 0,0.68494 0,0.68494c0,0 0,0.68493 0.747,0.68493c0,0 0,0.68493 0,0.68493c0.747,0 0.747,0.68493 0.747,0.68493c0,0 0.21879,0.20061 0.747,0.68493c0.52821,0.48432 0.21879,0.20061 0.747,0.68493c0.52822,0.48433 0,0.68494 0,0.68494c0,0.68493 0.21879,0.20061 0.747,0.68493c0.52821,0.48432 0,0.68493 0,0.68493c0,0.68493 -0.52821,0.88554 0,1.36986c0.52822,0.48433 0.74702,0 0.74702,0.68493c0,0 0.747,0.68493 0.747,0.68493c0,0.68494 0,0.68494 0.747,0.68494c0,0 0,0.68493 0,0.68493c0,0.68493 0.747,0.68493 0.747,0.68493c0,0 0.747,0 0.747,0.68493c0,0 -0.52821,0.20061 0,0.68493c0.52821,0.48432 0.747,0 0.747,0.68493c0,0 0.747,0 0.747,0.68493c0,0 0,0 0,0c0.74702,0 0.74702,0 0.74702,0.68494c0,0 0.747,0 0.747,0c0.747,0.68493 0.9658,0.20061 1.49401,0.68493c0.52821,0.48432 0,0.68493 0.747,1.36985c0,0 0.747,0 0.747,0c0,0.68494 0,0.68494 0.747,0.68494c0,0 0,0 0.74702,0.68494c0,0 0.21879,-0.48433 0.747,0c0.52819,0.4843 0,0.68492 0.747,0.68492c0,0 0.747,0.68494 0.747,0.68494c0,0 0.747,0 0.747,0.68492c0,0 0.747,0 0.747,0c0,0 0,0.68494 0,0.68494c0,0 0.747,0 0.747,0c0,0.68492 0,0.68492 0.74702,0.68492c0,0 0,0 0,0c0,0.68494 0.747,0.68494 0.747,0.68494c0.747,0 0.747,0.68494 0.747,0.68494c0.747,0 0.9658,-0.48433 1.49401,0c0.52819,0.4843 0.21879,0.20058 0.747,0.68492c0.52822,0.48433 0,0.68494 0.747,0.68494c0,0 0.05686,0.42279 0.74702,0.68492c0.97601,0.37069 0.9658,0.20061 1.49401,0.68494c0.52819,0.4843 0.747,0.68492 0.747,0.68492c0.747,0 0.747,0.68494 1.49401,0.68494c0,0 0.74702,0.68494 0.74702,0.68494c0.747,0 0.747,0 1.49401,0.68492c0,0 0.21878,0.20061 0.747,0.68494c0.52821,0.48433 0.747,0 1.49401,0.68492c0,0 0,0 0.747,0c0,0 0,0.68494 0,0.68494c0,0 0.74702,0 0.74702,0c0,0 0.747,0.68492 0.747,0.68492c0,0 0.21878,0.20061 0.747,0.68494c0.52821,0.48433 0.96578,0.20061 1.49401,0.68494c0.52821,0.48433 0.747,0.68492 1.49401,0.68492c0,0 0.74702,0.68494 1.49402,0.68494c0,0 0.747,0 0.747,0c0.747,0.68492 0.747,0.68492 1.49401,0.68492c0.747,0 0.96578,0.20061 1.49401,0.68494c0.52822,0.48433 0.74702,0 1.49402,0c0,0 0,0 0.747,0c0,0 0.747,0 0.747,0c0.747,0 0.747,0 1.49401,0c0,0 -0.52819,0.20061 0,0.68492c0.52821,0.48433 0.747,0 0.747,0c0.74702,0 0.74702,0 0.74702,0c0.747,0.68494 0.747,0.68494 0.747,0.68494c0,0 0.747,0 0.747,0c0.747,0 1.49401,0 1.49401,0c0.747,0.68494 0.747,0.68494 1.49401,0.68494c0.74702,0 0.51802,0.31425 1.49402,0.68492c0.69014,0.2621 1.49401,0 1.49401,0c0,0 0.747,0 0.747,0c0.747,0 0.747,0.68494 0.747,0.68494c0.747,0 0.747,0 0.747,0c0,0 0.74702,0 0.74702,0c0,0 0,0 0.747,0c0,0 0,0 0.747,0c0,0 0.747,0.68492 0.747,0.68492c0.747,0 0.747,0 0.747,0c0.747,0 0.747,0 1.49401,0c0,0 0.74702,0 0.74702,0c0.747,0 0.747,0 1.49401,0c0,0 0.747,0 0.747,0c0,0 0.747,0 0.747,0c0.747,0 1.49401,0 1.49401,0c0.74702,0 0.9658,0.20061 1.49402,0.68494c0.52821,0.48433 1.49401,0 2.24101,0c0.747,0 1.49401,0 1.49401,0c0.74702,0 0.74702,0 0.74702,0c0.74699,0 0.74699,0 0.74699,0c0.74702,0 0.74702,0 1.49401,0c0.74702,0 1.49404,0 1.49404,0c0.74699,0 0.74699,0 1.49401,0c0.74699,0 1.49401,0 1.49401,0c0.74702,0 0.74702,0 1.49401,0c0,0 0,0 0.74702,0c0,0 0.05688,0.2621 0.74699,0c0.97603,-0.37069 0.96581,-0.20064 1.49401,-0.68494c0.52819,-0.4843 0.96581,-0.20058 1.49404,-0.68492c0.52822,-0.48433 0.21879,-0.88556 0.74699,-1.36986c0.52822,-0.48433 1.49401,-0.68494 2.24102,-0.68494c0,0 0,-0.68494 0.74699,-0.68494c0,0 0,0 0.74702,0c0,0 0,0 0.74702,0c0.74699,0 0.74699,0 1.49401,0c0.74699,0 0.74699,0 1.49401,0c0.74699,0 0.74699,0 0.74699,0c0,0 0.74702,0 0.74702,0c0,0 0.74702,0 0.74702,0c0,0 0.74699,0 0.74699,0c0,0 0.74702,0 0.74702,-0.68492c0,0 0.74699,0 0.74699,0c0.74702,0 0.74702,0 1.49401,0c0,0 0.74702,0 1.49404,0c0,0 0.51798,-0.31425 1.49401,-0.68494c0.69011,-0.2621 0.51801,-0.31425 1.49401,-0.68492c0.69014,-0.2621 0.96578,0.48433 1.49401,0c0.52822,-0.48433 0.74702,-0.68494 0.74702,-0.68494c0.74699,-0.68492 1.49401,-0.68492 2.24099,-1.36986c0,0 0.74702,-0.68494 1.49401,-0.68494c0,0 0.74702,-0.68492 0.74702,-0.68492c0,0 0,0 0.74702,0c0,0 0,0 0.74699,0c0,0 0.21879,-0.20061 0.74702,-0.68494c0.52819,-0.4843 0.74699,0 0.74699,0c1.49401,0 2.24102,0 2.24102,0c0.74702,0 0.51801,-0.31425 1.49401,-0.68492c0.69014,-0.2621 1.49401,0 1.49401,-0.68494c0,0 0.74702,0 0.74702,0c0.74699,-0.68492 0.96578,-0.88553 1.49401,-1.36986c0.52822,-0.48433 1.49401,0 1.49401,-0.68494c0,0 0.74702,0 0.74702,-0.68492c0,0 0.21876,-0.20061 0.74699,-0.68494c0.52822,-0.48433 0.74702,0 0.74702,-0.68492c0,0 0.74699,0 0.74699,-0.68494c0,0 0.74702,-0.68492 0.74702,-0.68492c0.74702,-0.68494 0.21879,-0.88556 0.74702,-1.36989c0.52819,-0.4843 0.96578,-0.20058 1.49401,-0.68492c0.52822,-0.48433 0,-0.68494 0.74699,-1.36986c0,0 0.74702,-0.68494 0.74702,-0.68494c0,-0.68492 0.74699,-0.68492 0.74699,-1.36986c0,0 0.74702,-0.68494 0.74702,-0.68494c0.74702,-0.68492 0.74702,-0.68492 1.49401,-1.36985c0,0 0.74702,-0.68493 0.74702,-0.68493c0.74699,-0.68494 0.74699,-0.68494 1.49401,-1.36988c0,0 0.74699,-0.68493 0.74699,-0.68493c0.74702,-0.68493 1.49404,-1.36986 1.49404,-1.36986c0.74699,-0.68493 0.74699,-0.68492 1.49401,-1.36986c0.74699,-0.68493 0.21876,-0.88556 0.74699,-1.36988c0.52822,-0.48433 0.96581,-0.20063 1.49401,-0.68493c0.52822,-0.48432 0,-0.68493 0.74702,-1.36986c0,0 0.21879,-0.2006 0.74702,-0.68493c0.52822,-0.48432 0.74699,-1.36988 0.74699,-2.05481c0,0 0.74702,-0.68493 0.74702,-1.36986c0,0 0,0 0.74699,-0.68493c0,0 0,-0.68493 0,-0.68493c0.74702,-0.68494 0.74702,-1.36988 0.74702,-1.36988c0.74699,0 0.74699,0 0.74699,-0.68493c0,0 0.74702,-0.68493 0.74702,-0.68493c0,-0.68493 0.46116,-1.422 0.74702,-2.05479c0.40426,-0.89491 1.08972,-0.47496 1.49401,-1.36988c0.28586,-0.6328 0,-0.68493 0.74699,-1.36986c0,0 0,-0.68493 0,-0.68493c0.74702,-0.68493 0.74702,-1.36986 0.74702,-1.36986c0.74699,-0.68494 0.21876,-0.88556 0.74699,-1.36988c0.52822,-0.48433 0.74702,-0.68493 0.74702,-0.68493c0,-0.68493 0,-0.68493 0,-0.68493c0.74702,-0.68493 0.74702,-0.68493 0.74702,-0.68493c0,-0.68493 0.74699,-0.68493 0.74699,-1.36986c0,0 -0.52822,-0.20061 0,-0.68494c0.52822,-0.48433 0.74702,0 0.74702,-0.68493c0,0 0,0 0,0c0.74699,-0.68493 0.74699,-0.68493 0.74699,-0.68493c0,0 0,-0.68493 0,-0.68493c0.74702,0 0.74702,0 0.74702,-0.68493c0,0 0.74699,0 0.74699,-0.68493c0,-0.68493 0.74702,-0.68493 0.74702,-1.36988c0,0 0,0 0,-0.68493c0,0 0,0 0,-0.68493c0,0 0,0 0.74702,-0.68493c0,0 0,0 0,-0.68493c0,0 0,-0.68493 0,-0.68493c0,-0.68493 0,-0.68493 0,-0.68493c0,-0.68494 0.52822,-0.48433 0,0c-0.52822,0.48433 -0.74702,0 -0.74702,0c0,0 0,0 -0.74702,0c0,0 -0.05685,-0.2621 -0.74699,0c-0.97603,0.37068 -1.36234,1.01798 -2.98801,1.36986c-0.72704,0.15737 -1.71283,0.20063 -2.24102,0.68493c-0.52822,0.48432 -0.96581,0.20063 -1.49401,0.68493c-0.52822,0.48432 -0.74702,0.68493 -0.74702,0.68493c-0.74699,0 -0.74699,0 -1.49401,0.68493c0,0 0,0 -0.74702,0c0,0 -0.21879,-0.4843 -0.74699,0c-0.52822,0.48433 0,0.68494 -0.74702,0.68494c0,0 -0.05685,0.42283 -0.74699,0.68493c-0.97603,0.37068 -1.26499,0.99918 -2.24102,1.36986c-0.69014,0.26212 -1.49401,0.68493 -1.49401,0.68493c-0.74702,0.68493 -0.96578,0.88554 -1.49401,1.36986c-0.52822,0.48433 -1.49401,0 -2.24102,0.68494c0,0 0,0 -0.74702,0.68493c0,0 0,0 -0.74699,0c0,0 -0.74702,0.68493 -0.74702,0.68493c-0.74699,0.68493 -1.26499,0.99918 -2.24099,1.36986c-0.69014,0.26212 -1.55088,0.42283 -2.24102,0.68493c-0.97603,0.37068 -1.63296,1.1593 -2.98801,2.05481c-0.85702,0.56638 -1.49404,0.68493 -2.24102,1.36986c0,0 -0.74702,0.68493 -1.49401,0.68493c-0.74702,0 -1.49401,0.68493 -2.24102,0.68493c-0.74702,0 -2.24102,0.68493 -2.24102,0.68493c-0.74699,0.68494 -1.49401,0.68494 -1.49401,0.68494c0,0 -0.74699,0 -0.74699,0c-0.74702,0 -0.80389,-0.26212 -1.49404,0c-0.976,0.37068 -1.49401,0.68493 -2.24099,0.68493c-0.74702,0 -1.55088,-0.26212 -2.24102,0c-0.97603,0.37068 -2.01201,0.99918 -2.98801,1.36986c-1.38028,0.52423 -2.24102,0.68493 -2.98804,0.68493c-0.74699,0 -1.49401,0.68493 -1.49401,0.68493c-0.74699,0 -1.55085,-0.2621 -2.24099,0c-0.97603,0.37068 -0.74702,0.68493 -1.49404,0.68493c0,0 -0.74699,0 -0.74699,0c0,0 -0.74702,0 -1.49401,0.68494c0,0 -0.74702,0 -0.74702,0c-0.74699,0 -1.49401,0 -1.49401,0c-0.74702,0 -1.49401,0.68493 -1.49401,0.68493c-0.74702,0 -1.55088,-0.26212 -2.24102,0c-0.976,0.37068 -1.55088,0.42281 -2.24102,0.68493c-0.976,0.37068 -1.49401,0.68493 -2.24099,0.68493c-0.74702,0 -1.49401,0 -2.24102,0.68493c0,0 -0.74702,0 -1.49401,0c-0.74702,0 -0.74702,0.68493 -1.49401,0.68493c-0.74702,0 -0.74702,0 -1.49401,0c-0.74702,0 -0.74702,0 -1.49404,0c-0.74699,0 -0.74699,0 -1.49401,0c-0.74699,0 -1.49401,0.68494 -2.24102,0.68494c-0.74699,0 -1.49401,0 -2.24099,0c-1.49402,0 -2.24102,0 -2.98803,0c-0.747,0 -1.49401,0 -2.24101,0c0,0 -0.74702,0 -1.49402,0c-0.747,0 -0.747,0 -1.49401,0c0,0 -0.747,0 -0.747,0c-0.747,0 -0.747,0 -1.49401,0c-0.74702,0 -0.74702,0 -1.49402,0c-1.49401,0 -1.49401,0 -2.24101,0c-0.747,0 -1.49401,0 -2.24102,0c-0.747,0 -1.49401,0 -2.24101,0c-0.747,0 -1.49401,0 -2.24101,0c-0.74702,0 -1.49402,0 -2.24102,0c-0.747,0 -1.49401,-0.68494 -2.98801,-0.68494c-0.74702,0 -0.74702,0 -0.74702,0c-0.747,0 -0.747,0 -1.49401,0c0,0 -0.747,0 -0.747,0c-0.747,-0.68493 -1.49401,-0.68493 -1.49401,-0.68493c-0.747,0 -1.49402,0 -1.49402,0c0,-0.68493 -0.747,-0.68493 -0.747,-0.68493c0,0 -0.747,0 -0.747,0c0,0 -0.747,0 -0.747,0c-0.747,0 -0.747,-0.68493 -1.49401,-0.68493c0,0 -0.747,0 -0.747,0c-0.74702,0 -1.49402,-0.68493 -1.49402,-0.68493c0,0 -0.747,0 -0.747,0c-0.747,0 -0.747,0 -1.49401,-0.68493c0,0 -0.747,0 -0.747,0c-0.747,0 -1.49402,-0.68494 -1.49402,-0.68494c0,0 -0.747,0 -0.747,0c0,0 -0.51801,-0.31425 -1.49401,-0.68493c-0.69014,-0.26212 -1.49401,0 -2.24101,0c-0.74702,0 -1.49402,0 -2.24102,-0.68493c0,0 -0.747,0 -1.49401,0c0,0 -0.747,-0.68493 -0.747,-0.68493c0,0 -0.74702,0 -0.74702,0c0,0 0,0 -0.747,-0.68493c0,0 -0.747,0 -0.747,0c-0.747,0 -1.49401,-0.68493 -1.49401,-0.68493c-0.747,0 -0.80386,0.2621 -1.49401,0c-0.97601,-0.37068 -1.49402,-0.68493 -1.49402,-0.68493c-1.49401,-0.68494 -2.24101,-1.36988 -2.24101,-1.36988c-1.49401,-0.68493 -1.55087,-0.42281 -2.24102,-0.68493c-0.976,-0.37068 -1.49401,-1.36986 -1.49401,-1.36986c-1.49401,-0.68493 -1.49401,-1.36986 -2.24101,-1.36986c0,0 -0.747,0 -0.747,0c0,0 -0.74702,0 -0.74702,0c0,-0.68494 -0.747,-0.68494 -1.49401,-0.68494c0,0 -0.21879,-0.20061 -0.747,-0.68493c-0.52821,-0.48432 -0.80386,0.26212 -1.49401,0c-0.976,-0.37068 -0.9658,-0.2006 -1.49402,-0.68493c-0.52821,-0.48432 -0.9658,-0.20061 -1.49401,-0.68493c-0.52821,-0.48432 -0.747,-0.68493 -0.747,-0.68493c-0.747,0 -0.747,-0.68493 -1.49401,-0.68493c-0.747,0 -0.80386,0.26212 -1.49402,0c-0.976,-0.37068 -1.49401,-0.68493 -1.49401,-0.68493c-0.747,0 -0.51799,-0.31425 -1.49401,-0.68494c-0.69014,-0.26212 -0.747,0 -0.747,0c-0.747,0 -0.9658,0.48433 -1.49402,0c-0.52821,-0.48432 0,-0.68493 -0.747,-0.68493c0,0 0,0 -0.747,0c0,0 0,0 0,0c0,-0.68493 -0.747,-0.68493 -0.747,-0.68493c0,0 0,0 -0.747,0c0,0 0,-0.68493 0,-0.68493c0,0 -0.747,0 -0.747,0c0,0 -0.747,0 -0.747,-0.68493l0.747,0.68493l0,0.68493" stroke="null"/>
   <path fill="#000000" stroke-width="null" stroke-opacity="null" fill-opacity="0.6" id="svg_58" d="m202.03928,226.6986c0,-0.51429 0,-0.51429 0,-0.51429c0,-0.51427 0.91578,-0.51427 0.91578,-1.02856c0,0 0.26823,-0.15061 0.91579,-0.51427c0.64757,-0.36366 0,-0.51429 0,-0.51429c0.91578,-0.51429 0.91578,-0.51429 0.91578,-0.51429c0,-0.51427 0,-0.51427 0.91579,-0.51427c0,0 0,0 0,0c0.91579,0 0.91579,0 0.91579,0c0.91578,0 0.91578,-0.51429 0.91578,-0.51429c0.91579,-0.51427 0.91579,-0.51427 0.91579,-0.51427c0.91578,-0.51429 0.91578,-0.51429 0.91578,-0.51429c0.91579,-0.51427 0.91579,-0.51427 0.91579,-0.51427c0,0 0.91578,0 0.91578,0c0,0 0.91579,0 0.91579,0c0.91579,-0.51429 0.9855,-0.31749 1.83158,-0.51429c1.19654,-0.27833 0.91578,-0.51429 0.91578,-0.51429c0.91578,0 0.91578,0 0.91578,0c0,-0.51427 0,-0.51427 0.91578,-0.51427c0,0 0,-0.51429 0.91579,-0.51429c0,0 0,0 0,0c0,-0.51427 0,-0.51427 0,-0.51427c0,0 0.91578,-0.51429 0.91578,-0.51429c0,0 0.91578,0 0.91578,0c0,0 0.26823,0.36366 0.91579,0c0.64755,-0.36364 0,-0.51427 0.91578,-0.51427c0,0 0.91578,0 0.91578,0c0,0 0.91578,0 1.83158,-0.51429c0,0 0.91578,0 0.91578,0c0.91578,0 0.91578,-0.51429 0.91578,-0.51429c0,0 0.91579,0 0.91579,0c0.91578,0 0.91578,0 0.91578,-0.51427c0,0 0.91578,0 0.91578,0c0,0 0,0 0.91578,0c0,0 0,0 0.91579,0c0,0 0.26823,0.36366 0.91578,0c0.64756,-0.36365 0,-0.51428 0.91578,-0.51428c0,0 0.91579,0 0.91579,0c0.91578,0 0.91578,0 0.91578,0c0.91578,0 0.91578,-0.51428 1.83157,-0.51428c0,0 0,0 0.91579,0c0,0 0.91578,0 0.91578,0c0.91578,0 0.91578,-0.51429 0.91578,-0.51429c0.91579,0 0.91579,0 0.91579,0c0,0 0.91578,0 0.91578,0c0.91578,0 0.91578,0 0.91578,0c0.91579,0 0.63505,-0.23596 1.83158,-0.51428c0.84608,-0.19681 0.91578,0 1.83157,0c0,0 0,0 0.91579,0c0,0 0,0 0.91578,0c0,0 0,0 0.91578,0c0,0 0,0 0.91579,0c0,0 0,0 0.91578,0c0,0 0,0 0.91578,0c0,0 0,0 0.91578,0c0,0 0.91579,0 0.91579,0c0.91578,0 0.91578,0 0.91578,0c0.91578,0 0.91578,0 1.83158,0c0,0 0,0 0.91578,0c0,0 0.91578,0 0.91578,0c0,0 0.91578,0 0.91578,0c0.91579,0 0.91579,0 0.91579,0c0.91578,0 0.91578,0 0.91578,0c0.91578,0 0.91578,0 0.91578,0c0.91579,0 0.91579,0 1.83158,0c0.91578,0 0.91578,0 1.83157,0c0.91579,0 0.91579,0.51428 0.91579,0.51428c0.91578,0 0.91578,0 1.83157,0c0,0 0.91579,0 0.91579,0c0,0 0,0 0,0c0.91578,0 0.91578,0 0.91578,0c0.91578,0.51429 1.83157,0.51429 1.83157,0.51429c0.91579,0 0.91579,0 1.83158,0.51428c0,0 0,0 0.91578,0c0,0 0,0 0.91579,0.51428c0,0 0.91578,0 0.91578,0c0.91578,0 0.91578,0 0.91578,0c0.91578,0.51427 0.91578,0.51427 0.91578,0.51427c0.91579,0 0.91579,0 0.91579,0c0.91578,0 0.91578,0 0.91578,0c0,0 0.91578,0 0.91578,0c0,0.51429 0.91579,0.51429 0.91579,0.51429c0,0 0.91578,0 0.91578,0c0.91578,0.51429 0.91578,0.51429 1.83157,0.51429c0,0 0.91579,0.51427 0.91579,0.51427c0,0 0.91578,0 0.91578,0c0,0.51429 0.91578,0.51429 0.91578,0.51429c0,0 0,0 0.91579,0c0,0 0,0 0.91578,0c0,0 0,0.51427 0.91578,0.51427c0,0 0,0 0,0c0.91578,0 0.91578,0 0.91578,0c0,0.51429 0.91579,0.51429 0.91579,0.51429c0,0 0.26823,-0.36366 0.91578,0c0.64755,0.36364 0,0.51427 0.91579,0.51427c0,0 0,0 0,0c0.91578,0 0.91578,0.51429 0.91578,0.51429c0,0 0.91578,0 0.91578,0.51429c0,0 0.91578,0 0.91578,0.51427c0,0 0.91578,0 0.91578,0c0,0 0,0 0.91578,0.51429c0,0 0.26823,-0.36366 0.9158,0c0.64754,0.36364 0,0.51427 0,0.51427c0.91578,0 0.91578,0 0.91578,0c0,0.51429 0.26823,0.15063 0.91578,0.51429c0.64754,0.36364 0,0.51427 0,0.51427c0,0 0.91578,0 0.91578,0.51429c0,0 0,0 0,0.51429c0,0 0.91578,0 0.91578,0c0,0.51427 0,0.51427 0,0.51427c0,0 0,0.51429 0,0.51429c0,0 0,0 0,0.51427c0,0 0,0 0,0c0.91578,0 0.91578,0.51429 0.91578,0.51429l0,0l0,0.51427l0,0" stroke="null"/>
   <ellipse fill="#ffd3b3" stroke-width="null" cx="252.40751" cy="233.13856" id="svg_59" rx="39.99832" ry="15.5549"/>
   <path fill="#000000" stroke="null" stroke-width="null" stroke-opacity="null" fill-opacity="0.6" id="svg_53" d="m242.03758,254.39701c0,0 0,0 0.74071,-0.74071c0,0 0.45724,-0.79709 0.74071,-1.48143c0.40088,-0.96779 0.74072,-0.74071 1.48143,-1.48141c0,0 0,-0.74071 0,-0.74071c0.74071,-0.74071 0.74071,-0.74071 0.74071,-0.74071c0,0 0,-0.74071 0,-0.74071c0,0 -0.52376,-0.21695 0,-0.74071c0.52376,-0.52376 0.74071,0 0.74071,0c0,0 0,-0.74072 0,-0.74072c0.74071,-0.74071 0.74071,-0.74071 0.74071,-1.48141c0,-0.74071 0.74071,-0.74071 0.74071,-1.48141c0,-0.74071 0.74071,-1.48141 0.74071,-2.22214c0,-0.74071 0.74072,-0.74071 0.74072,-0.74071c0,-0.74071 -0.52376,-0.95766 0,-1.48141c0.52376,-0.52376 0.74071,-0.74071 1.48141,-0.74071c0,0 0.74071,0 0.74071,0c0,0 0.74071,0 0.74071,0c0.74071,0 0.74071,0 1.48141,0c0,0 0.74072,0 0.74072,0c0.74071,0 1.48141,0 2.22212,0c0,0 0.21695,-0.52376 0.74071,0c0.52376,0.52376 0,0.74071 0.74071,0.74071c0,0 0,0 0,0.74071c0,0 0,0.74071 0,0.74071c0,0.74071 0,0.74071 0,0.74071c0,0.74072 0.21695,0.21696 0.74071,0.74072c0.52377,0.52376 0,0.74071 0,1.48141c0,0 0,0.74071 0,0.74071c0.74072,0 0.74072,0 0.74072,0.74071c0,0 -0.52376,0.21695 0,0.74071c0.52374,0.52374 0.74069,0 0.74069,0c0,0 0,0.74071 0,0.74071c0.74072,0.74072 0.74072,0.74072 0.74072,0.74072c0,0.74071 0.21695,0.21696 0.74069,0.74071c0.52377,0.52376 0,0.74071 0,0.74071c0,0 0,0 0,0.74071c0,0 0.74072,0 0.74072,0c0,0.74071 0,0.74071 0,0.74071c0,0 0,0.74071 0,0.74071c0.74072,0 0.74072,0.74071 0.74072,0.74071c0,0 0,0 0,0c0,0.74072 0,0.74072 0.74069,0.74072c0,0 0,0.74071 0,0.74071c0,0 0,0.74071 0,0.74071l0,0"/>
  </g>
</svg>
     
   