<svg width="512" height="512" xmlns="http://www.w3.org/2000/svg">
  <g
     id="small-beard">
    <path
       fill="#HAIR"
       opacity="0.6"
       d="m 170.61887,231.13769 0.52149,3.46237 c 3.49362,6.74288 8.73951,13.48576 13.26607,20.22865 l 15.49634,15.27121 11.4112,7.34492 11.11775,3.69569 12.94045,3.2326 13.10017,1.84703 13.87777,0.38031 19.41425,-3.51124 17.71249,-5.64439 10.2126,-6.63401 10.88708,-9.49332 8.90561,-10.57206 6.05575,-9.9919 4.40637,-9.54157 -0.86728,0.28483 -7.14734,2.95688 -11.07621,6.16439 -12.71015,6.81189 -19.78,5.51688 -17.40751,4.43066 c 0,0 -11.49837,-12.81795 -17.86617,-12.03057 -5.32387,0.65829 -15.09254,12.97145 -15.09254,12.97145 l -17.56776,-3.31674 -12.55301,-2.73973 -9.59937,-4.1096 -14.76826,-6.84931 z"
       id="path866" />
    <path
       fill="#HAIR"
       opacity="0.6"
       d="m 201.07606,222.52463 10.07364,-5.65709 11.9052,-4.11426 14.65253,-2.57141 16.5835,-0.19921 13.6374,0.19921 12.82098,2.57141 8.24205,2.05712 9.15784,3.59997 3.66312,4.11426 -12.20321,-2.90974 -12.20082,-2.56859 -9.31116,-0.96322 h -16.05372 l -16.3748,0.32107 -11.55868,1.60537 -11.55867,2.24752 -11.4752,2.26759"
       id="path876" />
  </g>
</svg>
