<svg width="512" height="512" xmlns="http://www.w3.org/2000/svg">
  <path stroke="null" d="m206.03928,220.6986c0,-0.51429 0,-0.51429 0,-0.51429c0,-0.51427 0.91578,-0.51427 0.91578,-1.02856c0,0 0.26823,-0.15061 0.91579,-0.51427c0.64757,-0.36366 0,-0.51429 0,-0.51429c0.91578,-0.51429 0.91578,-0.51429 0.91578,-0.51429c0,-0.51427 0,-0.51427 0.91579,-0.51427c0,0 0,0 0,0c0.91579,0 0.91579,0 0.91579,0c0.91578,0 0.91578,-0.51429 0.91578,-0.51429c0.91579,-0.51427 0.91579,-0.51427 0.91579,-0.51427c0.91578,-0.51429 0.91578,-0.51429 0.91578,-0.51429c0.91579,-0.51427 0.91579,-0.51427 0.91579,-0.51427c0,0 0.91578,0 0.91578,0c0,0 0.91579,0 0.91579,0c0.91579,-0.51429 0.9855,-0.31749 1.83158,-0.51429c1.19654,-0.27833 0.91578,-0.51429 0.91578,-0.51429c0.91578,0 0.91578,0 0.91578,0c0,-0.51427 0,-0.51427 0.91578,-0.51427c0,0 0,-0.51429 0.91579,-0.51429c0,0 0,0 0,0c0,-0.51427 0,-0.51427 0,-0.51427c0,0 0.91578,-0.51429 0.91578,-0.51429c0,0 0.91578,0 0.91578,0c0,0 0.26823,0.36366 0.91579,0c0.64755,-0.36364 0,-0.51427 0.91578,-0.51427c0,0 0.91578,0 0.91578,0c0,0 0.91578,0 1.83158,-0.51429c0,0 0.91578,0 0.91578,0c0.91578,0 0.91578,-0.51429 0.91578,-0.51429c0,0 0.91579,0 0.91579,0c0.91578,0 0.91578,0 0.91578,-0.51427c0,0 0.91578,0 0.91578,0c0,0 0,0 0.91578,0c0,0 0,0 0.91579,0c0,0 0.26823,0.36366 0.91578,0c0.64756,-0.36365 0,-0.51428 0.91578,-0.51428c0,0 0.91579,0 0.91579,0c0.91578,0 0.91578,0 0.91578,0c0.91578,0 0.91578,-0.51428 1.83157,-0.51428c0,0 0,0 0.91579,0c0,0 0.91578,0 0.91578,0c0.91578,0 0.91578,-0.51429 0.91578,-0.51429c0.91579,0 0.91579,0 0.91579,0c0,0 0.91578,0 0.91578,0c0.91578,0 0.91578,0 0.91578,0c0.91579,0 0.63505,-0.23596 1.83158,-0.51428c0.84608,-0.19681 0.91578,0 1.83157,0c0,0 0,0 0.91579,0c0,0 0,0 0.91578,0c0,0 0,0 0.91578,0c0,0 0,0 0.91579,0c0,0 0,0 0.91578,0c0,0 0,0 0.91578,0c0,0 0,0 0.91578,0c0,0 0.91579,0 0.91579,0c0.91578,0 0.91578,0 0.91578,0c0.91578,0 0.91578,0 1.83158,0c0,0 0,0 0.91578,0c0,0 0.91578,0 0.91578,0c0,0 0.91578,0 0.91578,0c0.91579,0 0.91579,0 0.91579,0c0.91578,0 0.91578,0 0.91578,0c0.91578,0 0.91578,0 0.91578,0c0.91579,0 0.91579,0 1.83158,0c0.91578,0 0.91578,0 1.83157,0c0.91579,0 0.91579,0.51428 0.91579,0.51428c0.91578,0 0.91578,0 1.83157,0c0,0 0.91579,0 0.91579,0c0,0 0,0 0,0c0.91578,0 0.91578,0 0.91578,0c0.91578,0.51429 1.83157,0.51429 1.83157,0.51429c0.91579,0 0.91579,0 1.83158,0.51428c0,0 0,0 0.91578,0c0,0 0,0 0.91579,0.51428c0,0 0.91578,0 0.91578,0c0.91578,0 0.91578,0 0.91578,0c0.91578,0.51427 0.91578,0.51427 0.91578,0.51427c0.91579,0 0.91579,0 0.91579,0c0.91578,0 0.91578,0 0.91578,0c0,0 0.91578,0 0.91578,0c0,0.51429 0.91579,0.51429 0.91579,0.51429c0,0 0.91578,0 0.91578,0c0.91578,0.51429 0.91578,0.51429 1.83157,0.51429c0,0 0.91579,0.51427 0.91579,0.51427c0,0 0.91578,0 0.91578,0c0,0.51429 0.91578,0.51429 0.91578,0.51429c0,0 0,0 0.91579,0c0,0 0,0 0.91578,0c0,0 0,0.51427 0.91578,0.51427c0,0 0,0 0,0c0.91578,0 0.91578,0 0.91578,0c0,0.51429 0.91579,0.51429 0.91579,0.51429c0,0 0.26823,-0.36366 0.91578,0c0.64755,0.36364 0,0.51427 0.91579,0.51427c0,0 0,0 0,0c0.91578,0 0.91578,0.51429 0.91578,0.51429c0,0 0.91578,0 0.91578,0.51429c0,0 0.91578,0 0.91578,0.51427c0,0 0.91578,0 0.91578,0c0,0 0,0 0.91578,0.51429c0,0 0.26823,-0.36366 0.9158,0c0.64754,0.36364 0,0.51427 0,0.51427c0.91578,0 0.91578,0 0.91578,0c0,0.51429 0.26823,0.15063 0.91578,0.51429c0.64754,0.36364 0,0.51427 0,0.51427c0,0 0.91578,0 0.91578,0.51429c0,0 0,0 0,0.51429c0,0 0.91578,0 0.91578,0c0,0.51427 0,0.51427 0,0.51427c0,0 0,0.51429 0,0.51429c0,0 0,0 0,0.51427c0,0 0,0 0,0c0.91578,0 0.91578,0.51429 0.91578,0.51429l0,0l0,0.51427l0,0" id="svg_58" stroke-opacity="null" stroke-width="null" fill="#HAIR"/>
</svg>