<svg width="512" height="512" xmlns="http://www.w3.org/2000/svg">
    <g id="mustache">
        <path stroke="null" fill="#HAIR" stroke-width="78" stroke-opacity="null" fill-opacity="0.3" id="svg_45" d="m211.35163,234.14719c1.5418,-0.0609 0.48623,-1.76616 3.48099,-3.17516c2.83563,-1.33411 6.32831,-0.95336 8.70248,-1.41596c1.72744,-0.33656 3.48098,-0.91822 3.48098,-0.91822c0.58017,0 0.58017,0 0.58017,0c1.7405,0 4.65113,0.08869 8.12231,-0.91823c5.81961,-1.68817 3.25962,0.49324 10.44297,-0.42498c7.18335,-0.91821 2.86981,5.11361 2.30515,0.47374c2.50888,4.63987 -14.11409,-2.25337 5.81715,-0.93772c19.93125,1.31567 5.77075,0.42868 9.86281,0.88896c4.05094,0.45564 10.44298,0.91823 13.3438,0.91823c2.90082,0 4.64131,0.91822 6.38181,0.91822c1.16033,0 2.32066,0 3.48099,0c1.74049,0 2.90083,0 4.64132,0c2.32066,0 3.91423,0.34098 6.38182,2.75468c1.10353,1.07943 2.90083,1.83644 3.48099,2.75467l0,0l0.58017,0.91822l0,0"/>
    </g>
</svg>