<svg width="512" height="512" xmlns="http://www.w3.org/2000/svg">
  <g stroke="null" id="hair-bg">
    <ellipse fill="#HAIR" stroke-width="19" stroke-opacity="null" fill-opacity="null" cx="249" cy="171.45313" id="svg_40" rx="103.5" ry="100" stroke="null"/>
    <path fill="#HAIR" stroke="null" stroke-width="19" id="svg_37" d="m174.5,221.45313c0,0 0,1 0,2c0,2 0,3 0,5c0,1 0,2 0,3c0,1 0,2 0,3c0,1 -0.4588,1.69343 -1,3c-0.38268,0.92387 -0.29289,1.29289 -1,2c-0.70711,0.7071 -2.29289,0.29289 -3,1c-0.70711,0.7071 -1,1 -2,2c0,0 -0.07612,0.6173 -1,1c-1.30656,0.54119 -2,1 -2,1c0,0 -0.29289,0.29289 -1,1c-0.70711,0.7071 -2.07612,0.6173 -3,1c-1.30656,0.54119 -1.69344,1.4588 -3,2c-0.92388,0.38269 -2,1 -3,1c0,0 -1.70711,0.29289 -1,1c0.70711,0.7071 1,0 1,0c0,0 2,0 2,0c1,0 3,0 4,0c0,0 1,0 2,0c0,0 1,0 1,0c1,0 2,0 3,0c2,0 3,0 5,0c1,0 3.0535,0.4595 5,0c2.17625,-0.51375 3,-1 4,-2c2,-2 3.15224,-2.23464 5,-3c1.30656,-0.5412 2.1731,-1.85274 3,-3c1.30745,-1.814 3,-4 4,-5c1,-1 2.4588,-0.69344 3,-2c0.38268,-0.92388 1.4588,-1.69344 2,-3c0.76537,-1.84777 1.4588,-2.69344 2,-4c0.38268,-0.92388 1,-2 1,-3l0,-1l0,-1l0,0" transform="rotate(-27.94554328918457 176.91421508789074,236.1102600097656) "/>
    <ellipse fill="#HAIR" stroke-width="19" stroke-opacity="null" cx="252" cy="112.45312" id="svg_28" rx="108.5" ry="89" stroke="null"/>
  </g>
</svg>        
