<svg width="512" height="512" xmlns="http://www.w3.org/2000/svg">

  <g id="hair" fill="#SKIN" transform="translate(0,748) scale(0.10000000149011612,-0.10000000149011612) ">
   <path id="svg_15" d="m2294.77376,7096.03969c-224.32192,-44.20485 -455.20297,-136.63319 -578.51443,-231.07083c-191.52632,-147.68439 -229.56921,-313.4526 -137.74154,-598.77483c22.30101,-69.32125 51.16114,-183.852 62.96756,-256.18722c20.98919,-122.56801 30.17195,-144.67043 62.96756,-145.67509c17.05372,0 86.5804,233.08014 85.26856,289.34086c0,25.11639 -26.23648,98.45627 -65.59121,180.83804c-35.41924,75.34918 -70.8385,158.73561 -78.70944,184.85667c-22.30101,81.37712 -9.18276,103.47954 132.49423,211.98237c140.36518,106.49351 207.2682,137.63784 300.40771,137.63784c85.26856,0 150.85977,-27.12571 264.98847,-108.50282c56.40843,-39.18157 118.06417,-74.34452 137.74154,-78.36315c19.67736,-3.01396 43.2902,-7.03259 52.47296,-9.0419c41.97838,-10.04655 118.06417,21.09777 211.20368,87.40505c114.1287,81.37712 179.7199,108.50282 264.98847,108.50282c90.51587,0 158.73071,-31.14433 295.16042,-131.6099c179.7199,-133.61921 182.34354,-146.67974 68.21486,-380.76453c-62.96756,-126.58662 -66.90303,-140.6518 -65.59121,-221.02426c2.62365,-87.40505 52.47296,-262.21515 76.0858,-268.24309c31.48377,-7.03259 44.60202,20.09312 64.27939,139.64715c11.80641,70.32591 41.97838,195.90788 66.90303,278.28964c49.84932,163.75889 59.03208,270.2524 27.5483,357.65745c-61.65574,177.82408 -242.68746,307.42466 -565.39618,405.88093c-249.24658,75.34918 -463.07391,90.41901 -682.14853,47.21883l0,-0.00001z"/>
  </g>
  <g stroke="null" id="hair" fill="#HAIR" transform="translate(0,748) scale(0.10000000149011612,-0.10000000149011612) ">
   <path opacity="0.2" id="svg_15" d="m2294.77376,7096.03969c-224.32192,-44.20485 -455.20297,-136.63319 -578.51443,-231.07083c-191.52632,-147.68439 -229.56921,-313.4526 -137.74154,-598.77483c22.30101,-69.32125 51.16114,-183.852 62.96756,-256.18722c20.98919,-122.56801 30.17195,-144.67043 62.96756,-145.67509c17.05372,0 86.5804,233.08014 85.26856,289.34086c0,25.11639 -26.23648,98.45627 -65.59121,180.83804c-35.41924,75.34918 -70.8385,158.73561 -78.70944,184.85667c-22.30101,81.37712 -9.18276,103.47954 132.49423,211.98237c140.36518,106.49351 207.2682,137.63784 300.40771,137.63784c85.26856,0 150.85977,-27.12571 264.98847,-108.50282c56.40843,-39.18157 118.06417,-74.34452 137.74154,-78.36315c19.67736,-3.01396 43.2902,-7.03259 52.47296,-9.0419c41.97838,-10.04655 118.06417,21.09777 211.20368,87.40505c114.1287,81.37712 179.7199,108.50282 264.98847,108.50282c90.51587,0 158.73071,-31.14433 295.16042,-131.6099c179.7199,-133.61921 182.34354,-146.67974 68.21486,-380.76453c-62.96756,-126.58662 -66.90303,-140.6518 -65.59121,-221.02426c2.62365,-87.40505 52.47296,-262.21515 76.0858,-268.24309c31.48377,-7.03259 44.60202,20.09312 64.27939,139.64715c11.80641,70.32591 41.97838,195.90788 66.90303,278.28964c49.84932,163.75889 59.03208,270.2524 27.5483,357.65745c-61.65574,177.82408 -242.68746,307.42466 -565.39618,405.88093c-249.24658,75.34918 -463.07391,90.41901 -682.14853,47.21883l0,-0.00001z"/>
  </g>
</svg>