<svg width="512" height="512" xmlns="http://www.w3.org/2000/svg">

  <g stroke="null" id="balding">
   <path stroke="null" id="svg_5" fill="#HAIR" d="m164,94.36747l0,45.63253l27.84616,-42.59036s33.81319,7.30121 62.65384,7.30121s62.65384,-7.30121 62.65384,-7.30121l27.84616,42.59036l0,-45.63253c0,-30.57866 -40.51815,-55.36747 -90.5,-55.36747c-49.98186,0 -90.5,24.78881 -90.5,55.36747z" opacity="0.2"/>
   <ellipse stroke="null" id="svg_36" ry="20" rx="62.65384" cy="100.45313" cx="254.5" fill="#ffd3b3"/>
  </g>
  <path fill="#HAIR" stroke-width="1.5" id="svg_56" d="m225.50357,86.30691c0.88014,1 0.75053,1.1731 1.76029,2c1.59658,1.30745 2.64043,2 2.64043,2c0.88014,0 0.88014,1 0.88014,1c0,0 0,1 0,1c0.88014,1 0.25779,1.29289 0.88014,2c0.62236,0.70711 1.13793,0.29289 1.76029,1c0.62236,0.70711 0.13145,1.47427 0.88014,2c1.67413,1.17557 0.88014,2 1.76029,3c0,0 0,0 0.88014,1c0,0 0.25779,-0.70711 0.88014,0c0.62236,0.70711 0.25779,1.29289 0.88014,2c0.62236,0.70711 0.88014,1 0.88014,1c0.88014,0 0.88014,1 0.88014,1c0,1 0.54332,1.07612 0.88014,2c0.47633,1.30656 1.28395,0.69344 1.76029,2c0.33682,0.92388 -0.62236,1.29289 0,2c0.62236,0.70711 0.88014,0 0.88014,0c0,0 0.88014,0 1.76029,0c0,0 0.25779,0.29289 0.88014,1c0.62236,0.70711 0.88014,0 1.76029,0c0.88014,0 0.88014,0 1.76029,0c0,0 0,0 0.88014,0c0,0 -0.26982,0.4588 0.88014,1c0.81314,0.38268 0.88014,0 1.76029,0c0.88014,0 1.76029,0 1.76029,0c0.88014,0 0.88014,0 0.88014,0c0.88014,0 0.88014,0 0.88014,0c0.88014,0 0.88014,0 0.88014,0c0.88014,-1 0.88014,-1 0.88014,-1c0.88014,-1 0.88014,-1 0.88014,-1c0,0 -0.62234,-0.29289 0,-1c0.62234,-0.70711 0.88014,0 1.76029,-1c0,0 0,0 0,-1c0,0 -0.62234,-0.29289 0,-1c0.62234,-0.70711 0.88014,0 0.88014,0c0,-1 0.40381,-1.69344 0.88014,-3c0.33682,-0.92388 0.88014,-2 0.88014,-2c0,0 0,-1 0,-1c0.88014,-1 0.88014,-2 0.88014,-2c0,-1 0.88014,-1 0.88014,-2c0,0 0,-1 0,-1c0.88014,0 0.88014,-1 0.88014,-1c0,0 0,-1 0,-1c0,-1 0,-2 0,-3c0,-1 0,-1 0.88014,-2c0,0 0,-1 0,-1c0,-1 0,-2 0,-2c0,0 0,-1 0,-1c0,0 0.88014,0 0.88014,0c0,-1 0,-1 0,-1c0,0 0.88014,-1 0.88014,-1c0,0 0,-1 0,-1c-0.88014,0 -0.88014,0 -0.88014,0c-0.88014,0 -0.88014,-1 -2.64043,-1c-0.88014,0 -0.88014,0 -1.76029,-1c0,0 0,0 -0.88014,0c0,0 -1.76029,0 -2.64043,0c-0.88014,0 -1.76029,0 -1.76029,0c-0.88014,0 -0.88014,0 -0.88014,0c-0.88014,0 -0.88014,0 -1.76029,0c0,0 -0.88014,0 -0.88014,0c-0.88014,0 -0.88014,0 -1.76029,0c-0.88014,0 -0.88014,0 -0.88014,0c-0.88014,0 -0.88014,0 -0.88014,0c-0.88014,0 -0.88014,0 -1.76029,0c0,0 0,0 -0.88014,0c0,0 -0.25779,-0.70711 -0.88014,0c-0.62236,0.70711 0,1 -0.88014,1c0,0 -0.88014,0 -0.88014,0c-0.88014,0 -0.88014,0 -0.88014,0c-0.88014,0 -0.88014,0 -1.76029,0c0,0 -0.88014,0 -0.88014,0c0,0 -0.88014,0 -0.88014,0c0,0 -0.88014,0 -0.88014,0c0,0 -0.88014,0 -0.88014,0c0,0 0,1 -0.88014,1c0,0 -0.88014,0 -0.88014,0c0,0 -0.88014,0 -0.88014,0c-0.88014,0 -0.88014,0 -0.88014,0c-0.88014,0 -0.88014,0 -0.88014,0c-0.88014,0 -0.88014,0 -0.88014,0c-0.88014,0 -0.88014,0 -1.76029,0c0,0 0,0 -0.88014,0c-0.88014,0 -0.88014,1 -0.88014,1c-0.88014,0 -0.88014,0 -0.88014,0c-0.88014,0 -0.88014,0 -0.88014,0c0,1 -0.88014,1 -0.88014,1c-0.88014,0 -0.88014,1 -1.76029,1l0,0l-0.88014,1l0,0" fill-opacity="0.2" transform="rotate(2.7969911098480225 247.50714111328185,96.73480987548847) "/>
 
</svg>