<svg width="512" height="512" xmlns="http://www.w3.org/2000/svg">
    <g id="hair">
        <path id="svg_23" fill="#HAIR" d="m162.00001,88.90964l0,60.09036l28.15385,-56.08433s34.18681,9.61446 63.34615,9.61446s63.34615,-9.61446 63.34615,-9.61446l28.15385,56.08433l0,-60.09036c0,-40.26695 -40.96586,-72.90963 -91.5,-72.90963c-50.53414,0 -91.5,32.64268 -91.5,72.90963z" stroke="null"/>
        <path fill="none" stroke="#HAIR" stroke-width="7" id="svg_28" d="m295.5,179.45313c0,-1 0,-2 0,-10c0,-11 -0.40277,-20.08907 2,-30c3.43055,-14.15032 7.5178,-20.42727 12,-25c5.46719,-5.57763 9.93813,-9.07859 15,-13c3.95265,-3.06212 8.85076,-6.21006 13,-9c4.83881,-3.25361 8.80565,-4.44842 13,-6c3.867,-1.4305 9,-3 11,-3c1,0 2,0 2,0l0,-1" transform="rotate(106.03491973876953 329.48730468749994,130.953125) "/>
        <path fill="none" stroke-width="7" id="svg_32" d="m190.5,183.45313c0,-1 0,-2 0,-10c0,-11 -0.40277,-20.08907 2,-30c3.43055,-14.15032 7.5178,-20.42727 12,-25c5.46719,-5.57763 9.93813,-9.07859 15,-13c3.95265,-3.06212 8.85076,-6.21006 13,-9c4.83881,-3.25361 8.80565,-4.44842 13,-6c3.867,-1.4305 9,-3 11,-3c1,0 2,0 2,0l0,-1" stroke="#HAIR"/>
        <path fill="none" stroke="#HAIR" stroke-width="7" id="svg_44" d="m160.5,190.45313c0,-1 0,-2 0,-10c0,-11 -0.40277,-20.08907 2,-30c3.43055,-14.15032 7.5178,-20.42727 12,-25c5.46719,-5.57763 9.93813,-9.07859 15,-13c3.95265,-3.06212 8.85076,-6.21006 13,-9c4.83881,-3.25361 8.80565,-4.44842 13,-6c3.867,-1.4305 9,-3 11,-3c1,0 2,0 2,0l0,-1" transform="rotate(-4.567071914672852 194.48730468750065,141.953125HAIR03) "/>
        <path fill="none" stroke-width="7" id="svg_45" d="m114.98617,259.53083c0,-2.48449 0,-4.96899 0,-24.84493c0,-27.32942 -0.60851,-49.91114 3.02161,-74.53478c5.18289,-35.15636 11.35793,-50.7514 18.12965,-62.11231c8.25986,-13.85758 15.01457,-22.55569 22.66207,-32.2984c5.97168,-7.60781 13.37177,-15.42885 19.64046,-22.36043c7.3105,-8.08357 13.30362,-11.05207 19.64046,-14.90696c5.84228,-3.55407 13.59724,-7.45348 16.61885,-7.45348c1.5108,0 3.02161,0 3.02161,0l0,-2.48449" transform="rotate(9.68123722076416 166.33435058593759,139.03294372558597) " stroke="#HAIR"/>
        <path fill="none" stroke-width="7" id="svg_53" d="m393.84755,261.75011c0,-2.4845 0,-4.96899 0,-24.84493c0,-27.32942 0.74486,-49.91114 -3.69866,-74.53477c-6.34421,-35.15637 -13.90287,-50.7514 -22.19192,-62.11232c-10.11063,-13.85758 -18.37885,-22.55569 -27.73991,-32.2984c-7.30974,-7.60781 -16.36795,-15.42885 -24.04126,-22.36043c-8.94854,-8.08357 -16.28452,-11.05207 -24.04126,-14.90696c-7.15135,-3.55406 -16.64395,-7.45347 -20.3426,-7.45347c-1.84932,0 -3.69866,0 -3.69866,0l0,-2.4845" transform="rotate(-2.5245399475097656 330.99389648437545,141.25222778320327) " stroke="#HAIR"/>
        <path fill="none" stroke-width="7" id="svg_54" d="m126.98617,256.53083c0,-2.4845 0,-4.96899 0,-24.84493c0,-27.32942 -0.60851,-49.91114 3.02161,-74.53477c5.18289,-35.15637 11.35792,-50.7514 18.12965,-62.11232c8.25986,-13.85758 15.01457,-22.55569 22.66207,-32.2984c5.97168,-7.60781 13.37177,-15.42885 19.64046,-22.36043c7.31049,-8.08357 13.30361,-11.05207 19.64046,-14.90696c5.84228,-3.55406 13.59724,-7.45347 16.61885,-7.45347c1.5108,0 3.02161,0 3.02161,0l0,-2.4845" transform="rotate(9.68123722076416 178.33435058593767,136.03294372558597) " stroke="#HAIR"/>
        <path fill="none" stroke-width="7" id="svg_55" d="m134.98617,258.53083c0,-2.4845 0,-4.96899 0,-24.84493c0,-27.32942 -0.60851,-49.91114 3.02161,-74.53477c5.18289,-35.15637 11.35792,-50.7514 18.12965,-62.11232c8.25986,-13.85758 15.01457,-22.55569 22.66207,-32.2984c5.97168,-7.60781 13.37177,-15.42885 19.64046,-22.36043c7.31049,-8.08357 13.30361,-11.05207 19.64046,-14.90696c5.84228,-3.55406 13.59724,-7.45347 16.61885,-7.45347c1.5108,0 3.02161,0 3.02161,0l0,-2.4845" transform="rotate(9.68123722076416 186.33435058593727,138.032943725586) " stroke="#HAIR"/>
        <path fill="none" stroke-width="7" id="svg_56" d="m145.98617,254.53083c0,-2.4845 0,-4.96899 0,-24.84493c0,-27.32942 -0.60851,-49.91114 3.02161,-74.53477c5.18289,-35.15637 11.35792,-50.7514 18.12965,-62.11232c8.25986,-13.85758 15.01457,-22.55569 22.66207,-32.2984c5.97168,-7.60781 13.37177,-15.42885 19.64046,-22.36043c7.31049,-8.08357 13.30361,-11.05207 19.64046,-14.90696c5.84228,-3.55406 13.59724,-7.45347 16.61885,-7.45347c1.5108,0 3.02161,0 3.02161,0l0,-2.4845" transform="rotate(9.68123722076416 197.33435058593767,134.0329437255859) " stroke="#HAIR"/>
        <path fill="none" stroke-width="7" id="svg_57" d="m154.98617,248.53083c0,-2.4845 0,-4.96899 0,-24.84493c0,-27.32942 -0.60851,-49.91114 3.02161,-74.53477c5.18289,-35.15637 11.35792,-50.7514 18.12965,-62.11232c8.25986,-13.85758 15.01457,-22.55569 22.66207,-32.2984c5.97168,-7.60781 13.37177,-15.42885 19.64046,-22.36043c7.31049,-8.08357 13.30361,-11.05207 19.64046,-14.90696c5.84228,-3.55406 13.59724,-7.45347 16.61885,-7.45347c1.5108,0 3.02161,0 3.02161,0l0,-2.4845" transform="rotate(9.68123722076416 206.33435058593747,128.03294372558585) " stroke="#HAIR"/>
        <path fill="none" stroke-width="7" id="svg_58" d="m161.98617,250.53083c0,-2.4845 0,-4.96899 0,-24.84493c0,-27.32942 -0.60851,-49.91114 3.02161,-74.53477c5.18289,-35.15637 11.35792,-50.7514 18.12965,-62.11232c8.25986,-13.85758 15.01457,-22.55569 22.66207,-32.2984c5.97168,-7.60781 13.37177,-15.42885 19.64046,-22.36043c7.31049,-8.08357 13.30361,-11.05207 19.64046,-14.90696c5.84228,-3.55406 13.59724,-7.45347 16.61885,-7.45347c1.5108,0 3.02161,0 3.02161,0l0,-2.4845" transform="rotate(9.68123722076416 213.33435058593767,130.03294372558585) " stroke="#HAIR"/>
        <path fill="none" stroke-width="7" id="svg_61" d="m170.98617,259.53083c0,-2.4845 0,-4.96899 0,-24.84493c0,-27.32942 -0.60851,-49.91114 3.02161,-74.53477c5.18289,-35.15637 11.35792,-50.7514 18.12965,-62.11232c8.25986,-13.85758 15.01457,-22.55569 22.66207,-32.2984c5.97168,-7.60781 13.37177,-15.42885 19.64046,-22.36043c7.31049,-8.08357 13.30361,-11.05207 19.64046,-14.90696c5.84228,-3.55406 13.59724,-7.45347 16.61885,-7.45347c1.5108,0 3.02161,0 3.02161,0l0,-2.4845" transform="rotate(9.68123722076416 222.33435058593747,139.03294372558594) " stroke="#HAIR"/>
        <path fill="none" stroke-width="7" id="svg_62" d="m383.84755,261.75011c0,-2.4845 0,-4.96899 0,-24.84493c0,-27.32942 0.74486,-49.91114 -3.69866,-74.53477c-6.34421,-35.15637 -13.90286,-50.7514 -22.19192,-62.11232c-10.11063,-13.85758 -18.37885,-22.55569 -27.73991,-32.2984c-7.30974,-7.60781 -16.36796,-15.42885 -24.04126,-22.36043c-8.94854,-8.08357 -16.28452,-11.05207 -24.04126,-14.90696c-7.15134,-3.55406 -16.64394,-7.45347 -20.3426,-7.45347c-1.84932,0 -3.69865,0 -3.69865,0l0,-2.4845" transform="rotate(-2.5245399475097656 320.9938964843741,141.25222778320258) " stroke="#HAIR"/>
        <path fill="none" stroke-width="7" id="svg_63" d="m367.84755,257.75011c0,-2.4845 0,-4.96899 0,-24.84493c0,-27.32942 0.74486,-49.91114 -3.69866,-74.53477c-6.34421,-35.15637 -13.90286,-50.7514 -22.19192,-62.11232c-10.11063,-13.85758 -18.37885,-22.55569 -27.73991,-32.2984c-7.30974,-7.60781 -16.36796,-15.42885 -24.04126,-22.36043c-8.94854,-8.08357 -16.28452,-11.05207 -24.04126,-14.90696c-7.15134,-3.55406 -16.64394,-7.45347 -20.3426,-7.45347c-1.84932,0 -3.69865,0 -3.69865,0l0,-2.4845" transform="rotate(-2.5245399475097656 304.993896484375,137.25222778320241) " stroke="#HAIR"/>
        <path fill="none" stroke-width="7" id="svg_64" d="m357.84755,270.75011c0,-2.4845 0,-4.96899 0,-24.84493c0,-27.32942 0.74486,-49.91114 -3.69866,-74.53477c-6.34421,-35.15637 -13.90286,-50.7514 -22.19192,-62.11232c-10.11063,-13.85758 -18.37885,-22.55569 -27.73991,-32.2984c-7.30974,-7.60781 -16.36796,-15.42885 -24.04126,-22.36043c-8.94854,-8.08357 -16.28452,-11.05207 -24.04126,-14.90696c-7.15134,-3.55406 -16.64394,-7.45347 -20.3426,-7.45347c-1.84932,0 -3.69865,0 -3.69865,0l0,-2.4845" transform="rotate(-2.5245399475097656 294.99389648437455,150.25222778320315) " stroke="#HAIR"/>
        <path fill="none" stroke-width="7" id="svg_65" d="m346.84755,258.75011c0,-2.4845 0,-4.96899 0,-24.84493c0,-27.32942 0.74486,-49.91114 -3.69866,-74.53477c-6.34421,-35.15637 -13.90286,-50.7514 -22.19192,-62.11232c-10.11063,-13.85758 -18.37885,-22.55569 -27.73991,-32.2984c-7.30974,-7.60781 -16.36796,-15.42885 -24.04126,-22.36043c-8.94854,-8.08357 -16.28452,-11.05207 -24.04126,-14.90696c-7.15134,-3.55406 -16.64394,-7.45347 -20.3426,-7.45347c-1.84932,0 -3.69865,0 -3.69865,0l0,-2.4845" transform="rotate(-2.5245399475097656 283.9938964843743,138.25222778320307) " stroke="#HAIR"/>
        <path fill="none" stroke-width="7" id="svg_66" d="m374.84755,259.75011c0,-2.4845 0,-4.96899 0,-24.84493c0,-27.32942 0.74486,-49.91114 -3.69866,-74.53477c-6.34421,-35.15637 -13.90286,-50.7514 -22.19192,-62.11232c-10.11063,-13.85758 -18.37885,-22.55569 -27.73991,-32.2984c-7.30974,-7.60781 -16.36796,-15.42885 -24.04126,-22.36043c-8.94854,-8.08357 -16.28452,-11.05207 -24.04126,-14.90696c-7.15134,-3.55406 -16.64394,-7.45347 -20.3426,-7.45347c-1.84932,0 -3.69865,0 -3.69865,0l0,-2.4845" transform="rotate(-2.5245399475097656 311.9938964843752,139.25222778320244) " stroke="#HAIR"/>
        <path fill="none" stroke-width="7" id="svg_67" d="m363.84755,270.75011c0,-2.4845 0,-4.96899 0,-24.84493c0,-27.32942 0.74486,-49.91114 -3.69866,-74.53477c-6.34421,-35.15637 -13.90286,-50.7514 -22.19192,-62.11232c-10.11063,-13.85758 -18.37885,-22.55569 -27.73991,-32.2984c-7.30974,-7.60781 -16.36796,-15.42885 -24.04126,-22.36043c-8.94854,-8.08357 -16.28452,-11.05207 -24.04126,-14.90696c-7.15134,-3.55406 -16.64394,-7.45347 -20.3426,-7.45347c-1.84932,0 -3.69865,0 -3.69865,0l0,-2.4845" transform="rotate(-2.5245399475097656 300.9938964843741,150.25222778320224) " stroke="#HAIR"/>

    </g>
</svg>