<svg width="512" height="512" xmlns="http://www.w3.org/2000/svg">
    <g stroke="null" id="hair">
        <path stroke="#HAIR" d="m150.63824,157.83333c0,0 0,0 -0.97027,-0.91667c-0.97027,-0.91667 -1.94055,-1.83333 -1.94055,-1.83333c-0.97027,-0.91667 -0.97027,-0.91667 -1.94055,-0.91667c0,0 0,-0.91667 0,-0.91667c-0.97027,0 -0.28419,-0.26848 -0.97027,-0.91667c-0.68609,-0.64818 -0.97027,-0.91667 -0.97027,-0.91667c0,0 0,-0.91667 0,-0.91667c-0.97027,-0.91667 -0.97027,-0.91667 -0.97027,-1.83333c0,-0.91667 -0.97027,-0.91667 -0.97027,-1.83333c0,0 0,-0.91667 0,-0.91667c0,0 0,-0.91667 0,-0.91667c-0.97027,-0.91667 -0.97027,-0.91667 -0.97027,-0.91667c0,-0.91667 0,-0.91667 0,-1.83333c0,-0.91667 -0.97027,-2.75 -0.97027,-3.66667c0,-0.91667 -0.97027,-0.91667 -0.97027,-1.83333c0,0 0,0 0,-0.91667c0,0 0,0 0,-0.91667c0,0 0,-0.91667 0,-0.91667c0,-0.91667 0,-1.83333 0,-1.83333c0,-0.91667 0,-1.83333 0,-1.83333c0,-0.91667 0,-0.91667 0,-1.83333c0,0 0,0 0,-0.91667c0,0 0,0 0,-0.91667c0,0 0,-0.91667 0,-0.91667c0,0 0,-0.91667 0,-1.83333c0,0 0,-0.91667 0,-1.83333c0,0 0,-0.91667 0,-0.91667c0,-0.91667 0,-2.75 0,-4.58333c0,-0.91667 -0.37131,-1.90311 0,-2.75c0.52511,-1.19768 0.59896,-0.98644 0.97027,-1.83333c0.52511,-1.19768 0.97027,-0.91667 0.97027,-0.91667c0,-0.91667 0,-0.91667 0,-0.91667c0,-0.91667 0.97027,-0.91667 0.97027,-1.83333c0,0 0.28419,-0.26848 0.97027,-0.91667c0.68609,-0.64818 0.44516,-1.55232 0.97027,-2.75c0.37131,-0.84689 0.97027,-0.91667 0.97027,-1.83333c0,-0.91667 0,-0.91667 0,-1.83333c0,-0.91667 0.97027,-0.91667 0.97027,-1.83333c0,-0.91667 0,-0.91667 0,-1.83333c0,0 0,-0.91667 0,-0.91667c0,0 0.97027,-0.91667 0.97027,-0.91667c0,-0.91667 0.97027,-0.91667 0.97027,-1.83333c0,-0.91667 0.44516,-0.63565 0.97027,-1.83333c0.37131,-0.84689 0.4718,-0.7551 0.97027,-2.75c0.22292,-0.89215 0,-1.83333 0,-1.83333c0.97027,-0.91667 0.97027,-1.83333 0.97027,-2.75c0,0 0.28419,-0.26848 0.97027,-0.91667c0.68609,-0.64818 0,-0.91667 0,-1.83333c0,0 0,0 0.97027,-0.91667c0,0 0.28419,-0.26848 0.97027,-0.91667c0.68609,-0.64818 -0.68609,-1.18515 0,-1.83333c0.68609,-0.64818 0.74735,-0.02452 0.97027,-0.91667c0.49848,-1.9949 0.97027,-1.83333 0.97027,-2.75c0,0 0,-0.91667 0,-1.83333c0,0 0.97027,-0.91667 0.97027,-0.91667c0,-0.91667 0,-0.91667 0,-1.83333c0,-0.91667 0.28419,-0.26848 0.97027,-0.91667c0.68609,-0.64818 0.44516,-0.63565 0.97027,-1.83333c0.37131,-0.84689 0.59896,-0.98645 0.97027,-1.83333c0.52511,-1.19768 1.56923,-2.81978 1.94055,-3.66667c0.52511,-1.19768 1.94055,-0.91667 1.94055,-1.83333c0,-0.91667 0.97027,-0.91667 0.97027,-0.91667c0,-0.91667 0.28419,-0.26848 0.97027,-0.91667c0.68609,-0.64818 0,-0.91667 0.97027,-0.91667c0,0 -0.22292,-0.94119 0,-1.83333c0.49848,-1.9949 2.1085,-2.615 2.91082,-3.66667c1.26858,-1.66283 1.94055,-1.83333 2.91082,-2.75c0,0 0.97027,-0.91667 0.97027,-0.91667c0,0 0.97027,-0.91667 0.97027,-0.91667c0,0 0.28419,-0.26848 0.97027,-0.91667c0.68609,-0.64818 0,-0.91667 0.97027,-1.83333c0,0 0.97027,-0.91667 0.97027,-0.91667c0.97027,-0.91667 1.04414,-1.48254 1.94055,-1.83333c1.26773,-0.4961 0.97027,-0.91667 1.94055,-1.83333c0,0 0.97027,-0.91667 0.97027,-0.91667c0.97027,0 1.94055,-0.91667 1.94055,-0.91667c0.97027,-0.91667 1.04414,-0.56587 1.94055,-0.91667c1.26773,-0.4961 0.67282,-1.33724 1.94055,-1.83333c0.89641,-0.35079 1.6431,-0.42057 2.91082,-0.91667c0.89641,-0.35079 1.94055,-0.91667 2.91082,-0.91667c0.97027,0 1.94055,-0.91667 2.91082,-0.91667c0.97027,0 2.01441,-0.56587 2.91082,-0.91667c1.26773,-0.4961 1.6431,-1.33724 2.91082,-1.83333c1.79284,-0.70159 2.01441,-0.56587 2.91082,-0.91667c1.26773,-0.4961 1.25446,-1.18515 1.94055,-1.83333c0.68609,-0.64818 1.25446,-0.26848 1.94055,-0.91667c0.68609,-0.64818 2.91082,-0.91667 3.8811,-1.83333c0.97027,-0.91667 1.6431,-1.33724 2.91082,-1.83333c0.89641,-0.35079 1.25446,0.64818 1.94055,0c0.68609,-0.64818 0,-0.91667 0.97027,-0.91667c0,0 0,0 0.97027,0c0,0 0,0 0,0c0.97027,0 0.97027,0 1.94055,0c0.97027,0 1.94055,0 5.82164,0c2.91082,0 5.82164,-0.91667 7.76219,-0.91667c0.97027,0 2.61337,-0.42057 3.8811,-0.91667c0.89641,-0.35079 1.94055,0 1.94055,0c0.97027,0 1.94055,-0.91667 1.94055,-0.91667c0.97027,0 1.94055,0 2.91082,0c0.97027,0 1.94055,0 1.94055,0c0,0 0.97027,0 1.94055,0c0,0 0.97027,0 1.94055,0c0.97027,0 1.94055,0 2.91082,0c0.97027,0 2.91082,0 3.8811,0c0.97027,0 2.91082,0 2.91082,0c0.97027,0.91667 1.94055,0.91667 2.91082,0.91667c0.97027,0 1.96652,-0.21061 2.91082,0c2.11155,0.47093 2.91082,0.91667 3.8811,0.91667c1.94055,0 2.22475,0.26849 2.91082,0.91667c0.68607,0.64818 2.0144,-0.35079 2.91082,0c1.26771,0.4961 1.96652,0.70606 2.91082,0.91667c2.11155,0.47093 2.91082,0.91667 2.91082,0.91667c0.97027,0 1.94055,0.91667 1.94055,0.91667c0.97027,0 1.94055,0 2.91082,0.91667c0,0 0.67284,0.42057 1.94055,0.91667c0.89643,0.35079 0.59896,0.06978 0.97027,0.91667c0.52511,1.19768 2.0144,0.56587 2.91082,0.91667c1.26771,0.4961 1.64311,1.33724 2.91082,1.83333c0.89643,0.35079 2.0144,0.56587 2.91082,0.91667c1.26771,0.4961 1.04412,0.56587 1.94055,0.91667c1.26771,0.4961 1.94055,0.91667 2.91082,1.83333c0.97027,0.91667 2.98467,1.48254 3.8811,1.83333c1.26771,0.4961 2.76792,1.07534 3.8811,1.83333c1.76007,1.1985 2.61339,1.33724 3.8811,1.83333c0.89643,0.35079 1.94055,0.91667 1.94055,0.91667c0.97027,0 0.97027,0.91667 0.97027,0.91667c0.97027,0 1.25447,-0.64818 1.94055,0c0.68607,0.64818 0.07385,0.56587 0.97027,0.91667c2.53545,0.99219 3.95494,2.39921 4.85137,2.75c1.26771,0.4961 1.25447,1.18515 1.94055,1.83333c0.68607,0.64818 0.97027,0.91667 0.97027,0.91667c0.97027,0.91667 0.97027,0.91667 1.94055,1.83333c0,0 0.97027,0.91667 0.97027,0.91667c0.97027,0.91667 1.94055,0.91667 1.94055,0.91667c0.97027,0.91667 1.94055,0.91667 2.91082,1.83333c0,0 0.97027,0 0.97027,0.91667c0,0 1.25447,0.26848 1.94055,0.91667c0.68607,0.64818 0.97027,1.83333 0.97027,1.83333c0.97027,0.91667 0.97027,1.83333 1.94055,2.75c0,0 0.59896,0.98645 0.97027,1.83333c0.52511,1.19768 0.59896,1.90311 0.97027,2.75c0.52511,1.19768 1.41544,1.55232 1.94055,2.75c0.37131,0.84689 0.44516,1.55232 0.97027,2.75c0.37131,0.84689 0.97027,1.83333 0.97027,1.83333c0,0.91667 0.97027,1.83333 0.97027,1.83333c0.97027,0.91667 0.97027,1.83333 1.94055,2.75c0,0 0.74734,0.94119 0.97027,1.83333c0.49846,1.9949 1.56923,2.81978 1.94055,3.66667c0.52511,1.19768 1.41544,1.55232 1.94055,2.75c0.37131,0.84689 0,0.91667 0.97027,1.83333c0,0 0.2842,0.26848 0.97027,0.91667c0.68607,0.64818 -0.68607,2.10182 0,2.75c0.68607,0.64818 0.2842,1.18515 0.97027,1.83333c0.68607,0.64818 1.41544,0.63565 1.94055,1.83333c0.37131,0.84689 0.44516,0.63565 0.97027,1.83333c0.37131,0.84689 0,1.83333 0,1.83333c0.97027,0.91667 0.97027,0.91667 0.97027,1.83333c0,0 -0.37131,0.06978 0,0.91667c0.52511,1.19768 0.97027,0.91667 0.97027,1.83333c0,0 0.2842,0.26848 0.97027,0.91667c0.68607,0.64818 0,0.91667 0,1.83333c0,0.91667 0,0.91667 0,1.83333c0,0 0,0.91667 0,1.83333c0,0 0,0.91667 0,1.83333c0,0 0,0.91667 0,1.83333c0,0 0,0.91667 0,1.83333c0,0.91667 0,0.91667 0,1.83333c0,0.91667 0,0.91667 0,1.83333c0,0.91667 0,0.91667 0.97027,1.83333c0,0 0,0.91667 0,0.91667c0,0 0,0.91667 0,1.83333c0,0 0,0.91667 0,0.91667c0,0.91667 0.97027,1.83333 0.97027,2.75c0,0 0,0.91667 0,0.91667c0,0 0,0.91667 0,0.91667c0,0 0,0.91667 0,0.91667c0,0 0,0.91667 0,0.91667c0,0 0,0.91667 0,0.91667c0,0.91667 0,1.83333 0,1.83333c0,0.91667 0,1.83333 0,1.83333c0,0.91667 0,2.75 0,2.75c0,0.91667 0,0.91667 0,1.83333c0,0.91667 0.68607,1.18515 0,1.83333c-0.68607,0.64818 -0.97027,0.91667 -0.97027,0.91667c0,0.91667 -0.97027,1.83333 -0.97027,1.83333c-0.97027,0.91667 -1.41544,1.55232 -1.94055,2.75c-0.37131,0.84688 0,0.91667 -0.97027,1.83333c0,0 -0.97027,0.91667 -0.97027,0.91667c-0.97027,0.91667 -1.25447,1.18515 -1.94055,1.83333c-0.68607,0.64818 -0.97027,0.91667 -0.97027,0.91667c0,0 -0.2842,0.26848 -0.97027,0.91667c-0.68607,0.64818 -0.97027,0 -1.94055,0.91667c0,0 -0.2842,-0.64818 -0.97027,0c-0.68607,0.64818 -0.2842,0.26848 -0.97027,0.91667c-0.68607,0.64818 0,0.91667 0,0.91667c-0.97027,0.91667 -0.97027,0.91667 -0.97027,0.91667c-0.97027,0.91667 -0.2842,1.18515 -0.97027,1.83333c-0.68607,0.64818 -0.2842,0.26848 -0.97027,0.91667c-0.68607,0.64818 -0.97027,0 -0.97027,0c0,0 0,0.91667 -0.97027,0.91667c0,0 -0.2842,0.26848 -0.97027,0.91667c-0.68607,0.64818 -0.97027,0.91667 -0.97027,0.91667c-0.97027,0 -0.97027,0.91667 -0.97027,0.91667c0,0 0,0 -0.97027,0c0,0 -0.37131,-0.06978 0,-0.91667c0.52511,-1.19768 0.74734,-2.77452 0.97027,-3.66667c0.49846,-1.9949 0.97027,-2.75 0.97027,-3.66667c0,-0.91667 0,-0.91667 0,-1.83333c0,-0.91667 0,-0.91667 0.97027,-1.83333c0,0 0,-0.91667 0,-0.91667c0,0 0,-0.91667 0,-0.91667c0,-0.91667 0,-0.91667 0,-1.83333c0,-0.91667 0,-0.91667 0,-2.75c0,-0.91667 0,-0.91667 0,-1.83333c0,-0.91667 -0.97027,-1.83333 -0.97027,-2.75c0,0 0.68607,-1.18515 0,-1.83333c-0.68607,-0.64818 -0.97027,-0.91667 -0.97027,-1.83333c0,-0.91667 -0.97027,-0.91667 -0.97027,-1.83333c0,0 0,-0.91667 -0.97027,-0.91667c0,0 -0.2842,-0.26848 -0.97027,-0.91667c-0.68607,-0.64818 0,-0.91667 0,-0.91667c-0.97027,-0.91667 -0.97027,-1.83333 -1.94055,-1.83333c0,0 0,0 0,-0.91667c0,0 -0.2842,-0.26848 -0.97027,-0.91667c-0.68607,-0.64818 -0.44516,-0.63565 -0.97027,-1.83333c-0.37131,-0.84689 0,-1.83333 -0.97027,-2.75c0,0 -0.97027,-0.91667 -0.97027,-1.83333c0,-0.91667 0,-0.91667 -0.97027,-1.83333c0,0 0.68607,-1.18515 0,-1.83333c-0.68607,-0.64818 -0.97027,-0.91667 -0.97027,-0.91667c0,-0.91667 -0.97027,-0.91667 -0.97027,-1.83333c0,0 0,-0.91667 0,-0.91667c-0.97027,-0.91667 -0.2842,-1.18515 -0.97027,-1.83333c-0.68607,-0.64818 -0.2842,-1.18515 -0.97027,-1.83333c-0.68607,-0.64818 -1.25447,-0.26848 -1.94055,-0.91667c-0.68607,-0.64818 0,-0.91667 -0.97027,-1.83333c0,0 0,-0.91667 -0.97027,-1.83333c0,0 -0.59896,-0.98644 -0.97027,-1.83333c-0.52511,-1.19768 -0.97027,-0.91667 -1.94055,-1.83333c0,0 -0.97027,-0.91667 -0.97027,-0.91667c-0.97027,-0.91667 -1.41544,-1.55232 -1.94055,-2.75c-0.37131,-0.84689 -0.97027,-1.83333 -0.97027,-1.83333c0,-0.91667 -0.97027,-0.91667 -0.97027,-1.83333c0,0 -0.97027,-0.91667 -0.97027,-0.91667c0,0 0,0 0,-0.91667c0,0 -0.97027,0 -0.97027,0c0,-0.91667 0,-0.91667 0,-0.91667c-0.97027,0 -0.97027,-0.91667 -0.97027,-0.91667c0,0 -0.97027,0 -0.97027,-0.91667c0,0 0,-0.91667 -0.97027,-0.91667c0,0 0.68607,-0.26848 0,-0.91667c-0.68607,-0.64818 -0.97027,0 -0.97027,0c0,0 -0.97027,-0.91667 -0.97027,-0.91667c0,0 -0.97027,-0.91667 -0.97027,-0.91667c0,0 -0.97027,0 -0.97027,0c0,0 -0.97027,0 -0.97027,0c-0.97027,0 -0.97027,0 -1.94055,0c0,0 0,0 -0.97027,0c0,0 -0.97027,0 -0.97027,0c-0.97027,0 -1.94055,0 -2.91082,0c-0.97027,0 -0.97027,0 -1.94055,0c-0.97027,0 -0.97027,0 -1.94055,0c-0.97027,0 -0.97027,0.91667 -1.94055,0.91667c-0.97027,0 -0.97027,0 -1.94055,0.91667c0,0 -0.97027,0 -0.97027,0c-0.97027,0 -1.25447,-0.64818 -1.94055,0c-0.68607,0.64818 -0.97027,0.91667 -0.97027,0.91667c-0.97027,0 -0.97027,0 -1.94055,0c-0.97027,0 -1.94055,0 -2.91082,0c-0.97027,0 -1.64311,0.42057 -2.91082,0.91667c-0.89643,0.35079 -1.94055,0 -3.8811,0c-0.97027,0 -1.94055,0.91667 -3.8811,0.91667c-0.97027,0 -1.94055,0 -2.91082,0c0,0 -0.97027,0.91667 -1.94055,0.91667c0,0 -0.97027,0 -0.97027,0c-0.97027,0 -1.76955,0.44574 -3.8811,0.91667c-0.94431,0.21061 -2.91082,0.91667 -2.91082,0.91667c-0.97027,0.91667 -1.94055,0.91667 -1.94055,0.91667c-0.97027,0 -0.97027,0.91667 -1.94055,0.91667c-0.97027,0 -0.97027,0.91667 -1.94055,0.91667c-0.97027,0 -1.04412,-0.35079 -1.94055,0c-1.26773,0.4961 -1.04414,0.56587 -1.94055,0.91667c-1.26773,0.4961 -1.6431,1.33723 -2.91082,1.83333c-0.89641,0.35079 -2.12102,0.63484 -3.8811,1.83333c-1.11316,0.758 -2.01441,1.48254 -2.91082,1.83333c-1.26773,0.4961 -1.94055,1.83333 -1.94055,1.83333c-0.97027,0 -0.97027,0 -1.94055,0.91667c0,0 0,0 -0.97027,0c0,0 0,0 0,0c-0.97027,0.91667 -0.97027,0.91667 -1.94055,0.91667c0,0 0,0 -0.97027,0c0,0 -1.25446,-0.64818 -1.94055,0c-0.68609,0.64818 0,0.91667 -0.97027,0.91667c0,0 -0.97027,0 -0.97027,0c0,0 -0.97027,0 -0.97027,0c-0.97027,0 -1.04414,-0.35079 -1.94055,0c-1.26773,0.4961 -1.94055,0.91667 -1.94055,0.91667c-1.94055,0.91667 -2.91082,0.91667 -3.8811,0.91667c-1.94055,0 -2.91082,0.91667 -4.85137,0.91667c-0.97027,0 -2.22473,-0.64818 -2.91082,0c-0.68609,0.64818 -0.97027,0.91667 -0.97027,0.91667c-0.97027,0 -1.25446,0.26848 -1.94055,0.91667c-0.68609,0.64818 -0.97027,0 -1.94055,0c-0.97027,0 -1.6431,0.42057 -2.91082,0.91667c-0.89641,0.35079 -1.9665,-0.21061 -2.91082,0c-2.11156,0.47093 -2.91082,0.91667 -3.8811,0.91667c-0.97027,0 -1.94055,0 -1.94055,0c-0.97027,0 -1.94055,0 -1.94055,0c0,0.91667 -0.97027,0.91667 -1.94055,0.91667c-0.97027,0 -1.94055,0 -2.91082,0.91667c0,0 -0.97027,0 -1.94055,0c0,0 0,0.91667 0,0.91667c0,0 -0.97027,0 -1.94055,0c0,0 -0.67282,0.42057 -1.94055,0.91667c-0.89641,0.35079 -1.6431,0.42057 -2.91082,0.91667c-0.89641,0.35079 -1.6431,0.42057 -2.91082,0.91667c-0.89641,0.35079 -2.91082,0 -3.8811,0c-0.97027,0 -0.97027,0.91667 -1.94055,0.91667c0,0 -0.28419,-0.64818 -0.97027,0c-0.68609,0.64818 0,0.91667 -0.97027,0.91667c0,0 0,0 -0.97027,0.91667c0,0 0,0 -0.97027,0c0,0 0,0.91667 0,0.91667c0,0 0,0.91667 0,0.91667c0,0.91667 -0.97027,0.91667 -0.97027,1.83333c0,0 0,0.91667 0,0.91667c-0.97027,0.91667 -0.97027,0.91667 -0.97027,0.91667c0,0.91667 0,0.91667 0,0.91667c0,0.91667 0,0.91667 0,1.83333c0,0 0,0 0,0.91667c0,0 -0.97027,0 -0.97027,0.91667c0,0 0,0.91667 0,0.91667c0,0.91667 0,1.83333 0,1.83333c-0.97027,0.91667 -0.97027,1.83333 -0.97027,1.83333c-0.97027,0.91667 -0.28419,2.10182 -0.97027,2.75c-0.68609,0.64818 -0.97027,0.91667 -0.97027,1.83333c0,0 -0.97027,0.91667 -0.97027,1.83333c0,0.91667 -0.97027,0.91667 -0.97027,1.83333c0,0 -0.28419,0.26848 -0.97027,0.91667c-0.68609,0.64818 0,0.91667 0,1.83333c0,0 0.68609,0.26848 0,0.91667c-0.68609,0.64818 -0.97027,0.91667 -0.97027,0.91667c0,0 0,0.91667 0,0.91667c0,0.91667 -0.97027,0.91667 -0.97027,0.91667c0,0.91667 0,0.91667 -0.97027,1.83333c0,0 0,0 0,0.91667c0,0 0,0 -0.97027,0c0,0 0,0 0,0.91667c0,0 0,0 -0.97027,0.91667c0,0 0,0 -0.97027,0.91667c0,0 -0.28419,0.26848 -0.97027,0.91667c-0.68609,0.64818 0,0.91667 0,0.91667c-0.97027,0.91667 -0.97027,0.91667 -0.97027,0.91667c-0.97027,0 -0.67282,0.42057 -1.94055,0.91667c-0.89641,0.3508 -0.97027,0 -1.94055,0c0,0 -0.97027,0 -0.97027,0c-0.97027,0 -0.97027,0 -1.94055,0c0,0 0,0 -0.97027,0c0,0 0,0 -0.97027,0c0,0 0,-0.91667 0,-0.91667c0,0 0.68609,-0.26848 0,-0.91667c-0.68609,-0.64818 -0.97027,0 -0.97027,-0.91667c0,0 0,0 0,-0.91667c0,0 0,0 0,0c0,-0.91667 -0.97027,-0.91667 -0.97027,-0.91667c0,0 -0.97027,-0.91667 -0.97027,-0.91667c-0.97027,-0.91667 -0.28419,-1.18515 -0.97027,-1.83333c-0.68609,-0.64818 -0.97027,0 -0.97027,-0.91667c0,0 0,0 0,-0.91667c0,0 0,0 0,-0.91667c0,0 0,-0.91667 0,-0.91667c0,0 0,-0.91667 0,-0.91667c0,-0.91667 0,-0.91667 0,-1.83333c0,0 0,-0.91667 0,-0.91667l0,-0.91667l-0.97027,0l0,0" id="svg_19" opacity="undefined" stroke-opacity="null" stroke-dasharray="null" stroke-width="null" fill="#HAIR"/>
    </g>
</svg>   
