<svg width="512" height="512" xmlns="http://www.w3.org/2000/svg">
  <g id="hair">
   <g transform="translate(0,748) scale(0.10000000149011612,-0.10000000149011612)" fill="#HAIR">
    <path fill="#HAIR" d="m2408.5855,7199.70139c-447.0745,-40.48975 -421.10197,-138.81033 -620.72186,-260.45723c-120.8661,-209.4904 -224.16412,-487.63733 -136.59041,-874.04878l72.7796,-101.22438l41.58834,92.42223c70.18028,152.2766 155.95619,257.90205 269.02442,333.60023c158.55551,105.62545 295.01724,142.59429 674.51077,181.32363c252.12928,25.52611 328.80772,39.6095 440.57634,80.09925c45.48728,16.72396 84.4763,29.92719 85.77591,28.16678c41.58834,-32.56785 118.26688,-195.40701 128.66386,-275.50626c9.09747,-60.73463 3.89893,-92.42223 -37.68941,-279.90734c-11.6967,-52.81263 -18.19485,-97.70346 -14.29602,-100.34412c12.99641,-8.80206 123.46542,41.37 170.25221,78.33884c64.98184,51.93247 64.58107,153.94899 99.67126,248.13162c0,0 16.93552,124.8765 -4.09936,225.42232c-34.6219,165.49044 -52.95867,197.69492 -77.62874,264.59094c-55.88436,148.75578 -125.81285,248.57241 -241.48041,281.14026c-106.57008,12.32298 33.79058,0 0,0c-57.18387,0.88016 -64.98174,3.52082 -97.47261,34.32826c-41.58834,42.25016 -161.15473,13.11633 -289.8186,31.60079c-119.56649,16.72405 -348.67746,22.88554 -463.04531,12.32298z"/>
   </g>
  </g>
</svg>
