<svg width="512" height="512" xmlns="http://www.w3.org/2000/svg">
  <g id="hair">
    <g
       fill="#HAIR"
       transform="translate(0,748) scale(0.10000000149011612,-0.10000000149011612) ">
      <path
         d="m 2424.6257,7211.1345 c -456.1524,-43.1 -429.6525,-147.759 -633.3257,-277.2481 -123.3203,-222.9956 -228.7158,-519.0738 -139.3639,-930.396 l 74.2574,-107.75 42.4328,98.3804 c 71.6053,162.0934 159.1229,274.5282 274.487,355.1064 161.775,112.4348 301.0076,151.7869 688.2068,193.013 257.2488,27.1717 335.4842,42.163 449.5223,85.263 46.4109,17.8021 86.1916,31.8565 87.5176,29.9826 42.4328,-34.6674 120.6683,-208.0043 131.2764,-293.2673 9.2822,-64.65 3.9781,-98.3804 -38.4547,-297.9521 -11.9342,-56.2173 -18.5643,-104.0021 -14.5863,-106.813 13.2603,-9.3695 125.9724,44.037 173.7092,83.3891 66.3013,55.2804 65.8924,163.8736 101.6951,264.1279 0,0 17.2794,132.9269 -4.1826,239.9546 -35.3249,176.1591 -54.034,210.4397 -79.205,281.6483 -57.0191,158.3456 -128.3675,264.5971 -246.3837,299.2645 -108.734,13.1174 34.4767,0 0,0 -58.345,0.9369 -66.3012,3.7478 -99.4518,36.5413 -42.4328,44.9739 -164.427,13.9619 -295.7034,33.638 -121.9943,17.8022 -355.7574,24.3609 -472.4475,13.1174 z"
         fill="#HAIR"/>
    </g>
  </g>
</svg>
