<svg width="512" height="512" xmlns="http://www.w3.org/2000/svg">
  <g
     id="hair">
    <g
       transform="translate(0,748) scale(0.10000000149011612,-0.10000000149011612)"
       fill="#HAIR">
      <path
         fill="#HAIR"
         d="m 1926.3937,7181.4068 c -120.8661,-209.4904 -362.6942,-729.8 -275.1205,-1116.2114 l 72.7796,-101.2244 41.5884,92.4222 c 70.1803,152.2766 155.9562,257.9021 269.0244,333.6003 158.5555,105.6254 295.0172,142.5943 674.5108,181.3236 252.1292,25.5261 328.8077,39.6095 440.5763,80.0992 45.4873,16.724 84.4763,29.9272 85.7759,28.1668 41.5884,-32.5678 118.2669,-195.407 128.6639,-275.5062 9.0974,-60.7347 3.8989,-92.4223 -37.6894,-279.9074 -11.6967,-52.8126 -18.1949,-97.7034 -14.2961,-100.3441 12.9965,-8.8021 123.4655,41.37 170.2523,78.3388 64.9818,51.9325 64.581,153.949 99.6712,248.1317 0,0 16.9355,124.8765 -4.0993,225.4223 -34.622,165.4904 -52.9587,197.6949 -77.6288,264.5909 -55.8843,148.7558 -190.6231,433.7747 -306.2907,466.3426 -475.5118,46.8411 130.3194,-34.7343 -241.8654,31.5614 -119.5665,16.7241 -458.2086,2.994 -572.7249,-5.815 -346.0554,3.6935 -425.1471,-133.2951 -453.1277,-150.9913 z"
      />
    </g>
  </g>
</svg>
