<svg width="512" height="512" xmlns="http://www.w3.org/2000/svg">
  <g stroke="null" id="hair">
   <g stroke="null" id="svg_1" fill="#HAIR" transform="translate(0,748) scale(0.10000000149011612,-0.10000000149011612) ">
    <path stroke="null" id="svg_3" d="m2432.96451,7286.18339c-456.1524,-43.09998 -804.89684,-206.13036 -933.52121,-435.68463c-123.32027,-222.99557 -70.2793,-519.07374 152.49281,-847.00841l74.25737,-107.74995l42.43278,98.3804c71.60532,162.09342 159.12292,274.52817 274.48706,355.1064c161.77499,112.43475 301.00754,151.7869 688.20669,193.01297c257.24874,27.17173 335.48419,42.16303 449.52229,85.26301c46.41086,17.80217 86.19158,31.85651 87.51762,29.9826c42.43278,-34.66737 120.66823,-208.00427 131.27642,-293.26728c9.28217,-64.64997 3.97807,-98.3804 -38.45472,-297.95207c-11.93421,-56.21736 -18.56435,-104.00214 -14.58628,-106.81301c13.26025,-9.36956 125.97232,44.03694 173.7092,83.3891c66.30123,55.28042 132.60244,155.53473 168.40511,255.78904c25.19446,71.20866 29.17254,109.62387 29.17254,248.29339c0,138.66952 -3.97807,177.08472 -29.17254,248.29339c-57.01904,158.3456 -169.73114,284.83468 -287.74731,319.50207c-25.19446,7.49565 -74.25737,13.11738 -108.734,13.11738c-58.34508,0.93695 -66.30123,3.74782 -99.45184,36.54129c-42.43278,44.9739 -164.42703,89.01084 -295.70345,108.68692c-121.99425,17.80217 -347.41841,24.36086 -464.10856,13.11738l0.00001,0z" fill="#000000"/>
   </g>
  </g>
</svg>   
