<svg width="512" height="512" xmlns="http://www.w3.org/2000/svg">
  <g stroke="null" id="hair" fill="#HAIR" transform="translate(0,748) scale(0.10000000149011612,-0.10000000149011612) ">
   <path stroke="null" id="svg_45" d="m2462.86788,7249.7217c-19.6926,-3.05307 -97.23222,-16.28304 -172.31026,-29.51302c-73.84726,-13.22998 -182.15657,-31.5484 -240.00359,-40.70761c-292.92746,-46.81375 -450.46828,-213.71494 -487.39191,-513.93355c-8.61551,-77.34445 2.46157,-135.35279 71.38568,-366.36847c43.07757,-142.47662 50.46229,-189.29038 56.61623,-308.36012c4.92315,-127.21127 7.38472,-141.45894 32.00047,-154.68891c13.53867,-8.14153 28.30811,-15.26536 33.23126,-15.26536c3.69236,0 11.07708,48.84913 14.76946,109.91054c4.92315,61.06141 19.6926,144.512 34.46205,190.30806c44.30836,131.28204 43.07757,171.98964 -1.23079,291.05939c-46.76993,122.12283 -44.30836,165.88349 9.8463,221.85646c88.61671,90.57443 176.00264,97.69826 408.6215,30.5307l153.84846,-43.76068l184.61815,0l184.61815,0l153.84846,42.74298c222.77257,63.09679 310.15848,60.04372 396.31362,-15.26536c70.1549,-61.06141 73.84726,-106.85747 22.15418,-240.17489c-43.07757,-112.96361 -45.53914,-154.68891 -12.30788,-244.24564c29.5389,-77.34445 48.00072,-188.27268 49.2315,-278.84711c0,-35.61915 3.69236,-64.11449 9.8463,-64.11449c4.92315,0 20.92339,7.12383 34.46205,15.26536c23.38497,13.22998 27.07733,27.47764 33.23126,154.68891c6.15393,122.12283 14.76946,164.86581 64.00096,328.71393c51.69308,165.88349 57.84703,201.50266 59.07781,300.2186c1.23079,227.9626 -87.38593,391.81072 -268.31171,492.56204c-67.69332,38.67223 -131.69428,56.99065 -240.00359,72.256c-50.46229,7.12383 -152.61767,23.40687 -226.46493,37.65453c-132.92507,24.42457 -288.00432,35.61915 -358.15921,27.47764l0.00003,0.00004z"/>
  </g>
</svg>