<svg width="512" height="512" xmlns="http://www.w3.org/2000/svg">

  <!-- odd-->
  <g stroke="null" transform="translate(0,748) scale(0.10000000149011612,-0.10000000149011612) " fill="#HAIR" id="hair">
   <path stroke="null" id="svg_14" d="m2453.37035,7371.31642c-282.61039,-36.99699 -519.54636,-123.70869 -693.68003,-255.51048c-92.77613,-71.68167 -124.1773,-105.2102 -169.85169,-181.51649c-61.37498,-104.05403 -85.63951,-191.9219 -85.63951,-308.69365c0,-89.02401 31.40115,-248.57354 71.36626,-357.25221c14.27326,-41.62162 41.39244,-135.27025 58.52033,-208.10808c17.12791,-72.83783 34.2558,-141.05104 37.11045,-150.30028c12.84592,-33.52853 32.82848,36.99699 55.66568,189.60959c25.69185,189.60959 31.40115,218.51349 57.093,291.35132c25.69185,76.3063 -2.85465,68.21321 530.96497,137.58256c226.94469,28.9039 372.53187,76.3063 513.83706,166.48646c41.39244,26.59159 74.22091,42.77777 74.22091,35.84084c0,-32.37236 -48.52906,-80.93092 -121.32265,-122.55253c-44.24709,-24.27927 -74.22091,-46.24625 -65.65695,-48.55855c27.11918,-6.93694 192.6889,32.37236 251.20922,60.12011c31.40115,16.18618 98.48544,57.8078 149.86915,93.64864c58.52033,41.62162 102.76741,63.58858 121.32265,61.27626c27.11918,-3.46846 28.5465,-10.4054 24.26453,-212.73271c-4.28197,-198.85883 -2.85465,-216.20117 38.53777,-358.40836c24.26453,-82.08707 47.10173,-183.82881 52.81103,-227.76273c5.7093,-42.77777 12.84592,-76.3063 15.70058,-73.99398c2.85465,2.31231 22.83721,73.99398 45.67441,159.54953c22.83721,85.55554 68.51162,223.13811 101.34009,305.22519c51.38371,129.48947 62.8023,176.89187 82.78486,346.84681c25.69185,235.85582 18.55523,292.50747 -44.24709,349.15911c-49.95638,43.93393 -159.86042,71.68167 -281.18307,72.83783c-62.8023,0 -64.22963,1.15615 -94.20347,56.65164c-61.37498,113.30329 -236.93598,174.57955 -512.40973,180.36033c-94.20347,2.31231 -189.83425,1.15615 -214.09878,-1.15615l0,-0.00002z"/>
  </g>

</svg>