<svg width="512" height="512" xmlns="http://www.w3.org/2000/svg">

  <g transform="translate(0,748) scale(0.10000000149011612,-0.10000000149011612) " fill="#HAIR" id="hair">
   <path  d="m2619.64968,7328.09812c278.25681,-40.33979 511.54281,-134.88616 682.99397,-278.59664c91.34692,-78.15833 122.26436,-114.71627 167.23514,-197.91707c60.42951,-113.45563 84.32024,-209.26264 84.32024,-336.58507c0,-97.0676 -30.91742,-271.03292 -70.26687,-389.53105c-14.05338,-45.38226 -40.75479,-147.49233 -57.61883,-226.91129c-16.86406,-79.41895 -33.72809,-153.79543 -36.53877,-163.88037c-12.64803,-36.55794 -32.32276,40.33979 -54.80816,206.7414c-25.29607,206.7414 -30.91742,238.25685 -56.21349,317.67582c-25.29607,83.20081 2.81067,74.37648 -522.78551,150.01356c-223.44863,31.51546 -366.79306,83.20081 -505.92146,181.52902c-40.75479,28.99423 -73.07755,46.64288 -73.07755,39.07918c0,-35.29731 47.78148,-88.24328 119.45369,-133.62553c43.56547,-26.47298 73.07755,-50.42474 64.64551,-52.94596c-26.70141,-7.56372 -189.72055,35.29731 -247.33937,65.55214c-30.91742,17.64865 -96.96828,63.03091 -147.56043,102.11008c-57.61883,45.38226 -101.18429,69.334 -119.45369,66.81276c-26.70141,-3.78185 -28.10674,-11.34556 -23.89074,-231.95376c4.21601,-216.82634 2.81067,-235.73561 -37.9441,-390.79166c-23.89074,-89.50389 -46.37613,-200.43831 -51.99748,-248.34179c-5.62135,-46.64288 -12.64803,-83.20081 -15.45871,-80.67956c-2.81067,2.52123 -22.48541,80.67956 -44.9708,173.96532c-22.48541,93.28575 -67.45621,243.29932 -99.77896,332.80322c-50.59215,141.18924 -61.83484,192.8746 -81.50957,378.18549c-25.29607,257.16612 -18.26939,318.93643 43.56547,380.70671c49.18681,47.90349 157.39779,78.15833 276.85148,79.41895c61.83484,0 63.24018,1.26061 92.75228,61.77029c60.42951,123.5406 233.28601,190.35335 504.51611,196.65644c92.75228,2.52123 186.90987,1.26061 210.80061,-1.26061l0,-0.00002l-0.00002,0l0.00001,0z"/>
  </g>

</svg>