<svg width="512" height="512" xmlns="http://www.w3.org/2000/svg">

        <g id="shirt">
            <g>
                <g>
                    <path d="m254.5811,312.84727l44,0l98.846,21.665c27.533,6.035 47.154,30.421 47.154,58.609l0,85.726l-66,0l0,33l-124,0l-124,0l0,-33l-66,0l0,-85.726c0,-28.187 19.621,-52.574 47.154,-58.609l98.846,-21.665l44,0z" fill="#000000"/>
                </g>
                <g>
                    <path fill="#000000" d="m130.70544,473.19159l-66,0l0,-20l66,0l0,20z"/>
                </g>
                <g>
                    <path d="m378.70469,452.50267l66,0l0,20l-66,0l0,-20z" fill="#000000"/>
                </g>
                <text font-weight="bold" xml:space="preserve" text-anchor="start" font-family="Arial, sans-serif" font-size="39" y="472.06842" x="177.22575" stroke-width="0" fill="#ffffff" stroke="#ffffff">ESSAR</text>
            </g>
        </g>

        <g>
            <path id="animal" fill="#ffffff" d="m164.84197,395.87766c-0.28028,0.03515 -0.54956,0.91572 -1.09138,1.37486c-0.39593,0.33045 -0.89054,0.31064 -1.15308,0.71971c-0.09967,0.15212 -0.0677,0.41354 -0.18036,0.66325c-0.22182,0.50154 -0.9997,0.54607 -0.9997,1.09192c-0.0025,0.58953 0.64823,0.70181 1.21328,1.1209c0.4409,0.3362 0.48336,0.56822 1.01669,0.73207c0.45613,0.13146 1.13409,-0.29998 1.74435,-0.14467c0.50035,0.12677 0.97996,0.21838 1.09362,0.65728c0.09967,0.40524 -0.00724,1.03184 -0.61501,0.9594c-0.20459,-0.02003 -1.09337,-0.27442 -2.18325,-0.17535c-1.31719,0.12783 -2.81899,0.49387 -2.96587,1.74622c-0.08118,0.69883 0.934,1.524 1.91397,1.35632c0.67696,-0.11292 0.35696,-0.79492 0.72467,-1.12558c0.48411,-0.42462 3.22517,1.48011 5.77187,1.48011c1.07264,0 1.8705,-0.23138 2.66262,-0.93894c0.07394,-0.05433 0.16437,-0.16981 0.27853,-0.17748c0.10841,0.00767 0.29676,0.09822 0.35921,0.13678c2.05061,1.40639 3.60236,4.22834 11.14307,4.26072c1.0609,0.00511 2.26818,0.43741 3.25539,1.20463c0.87955,0.6935 1.39338,1.77392 1.89398,2.86861c0.75514,1.6431 2.10681,3.24146 4.15767,5.02027c0.11166,0.09524 1.80031,1.21464 1.9357,1.29816c0.02048,0.01278 0.14488,0.26483 0.10167,0.40545c-0.04971,1.06742 -0.23206,4.16826 2.47901,4.30909c0.66247,0.02855 0.48961,-0.36859 0.48961,-0.64216c-0.00175,-0.5401 -0.11741,-1.07722 0.21633,-1.63053c0.45613,-0.7604 -0.96822,-1.11024 -0.92676,-2.75505c0.02948,-1.22636 -1.17856,-1.01714 -1.79056,-1.95161c-0.35322,-0.54117 -0.66722,-0.82773 -0.64448,-1.48991c0.13814,-3.7251 -0.92975,-6.17334 -1.46158,-6.77459c-0.41542,-0.4536 -0.75914,-0.63363 -0.3797,-0.84328c2.26294,-1.27558 2.77553,-2.4606 2.77553,-2.4606c1.20329,-2.41202 2.28492,-4.61504 3.77697,-5.58509c0.30026,-0.2007 1.07114,-0.69137 1.54376,-0.88355c1.39238,-0.5597 2.1248,-0.89953 2.52972,-1.23488c0.63924,-0.53115 1.14558,-1.64054 0.53182,-2.31253c-0.76314,-0.82986 -2.08158,-0.17151 -2.66287,0.12293c-4.15942,2.10522 -4.77218,5.81903 -6.21327,7.95173c-1.14958,1.70403 -3.01808,2.95575 -4.68924,3.05801c-1.2515,0.07926 -2.60291,-0.137 -3.94684,-0.64045c-3.26988,-1.22252 -5.0582,-2.80107 -5.48186,-3.08017c-0.87805,-0.57824 -7.69708,-6.2886 -13.22315,-6.52169c0,0 -0.68595,-1.17182 -0.85856,-1.19014c-0.40368,-0.04474 -0.81759,0.69883 -1.11411,0.78576c-0.27728,0.07819 -0.7459,-0.80514 -1.02743,-0.76594"/>
        </g>
    <g id="crest">
        <text stroke="null" transform="matrix(0.6667580057778153,0,0,0.5952136295843217,116.5711204417785,174.41389665493205)" font-family="'Simonetta', serif" font-size="75" y="416.21793" x="305.60083" fill="#ffffff">T</text>
        <text stroke="null" transform="matrix(0.6667580057778153,0,0,0.5952136295843217,116.5711204417785,174.41389665493205)" font-family="'Simonetta', serif" font-size="55" y="410.21793" x="311.60083" fill="#ffffff">R</text>
        <text stroke="null" transform="matrix(0.6667580057778153,0,0,0.5952136295843217,116.5711204417785,174.41389665493205)" font-family="'Simonetta', serif" font-size="30" y="401.21793" x="300.60083" fill="#ffffff">F</text>
        <text stroke="null" transform="matrix(0.6667580057778153,0,0,0.5952136295843217,116.5711204417785,174.41389665493205)" font-family="'Simonetta', serif" font-size="30" y="401.21793" x="337.60083" fill="#ffffff">C</text>
    </g>
    <g>
        <path fill="#000000" stroke-width="1.5" d="m88.77,389.74585l0,-42l-23.00001,42l23.00001,0z" stroke="#000000"/>
        <path fill="#000000" stroke-width="1.5" d="m420.76998,389.74585l0,-42l21.00001,42l-21.00001,0z" stroke="#000000"/>
    </g>
    <path d="m306.9671,434.65911l6.94029,0l0,-6.6098l7.11942,0l0,6.6098l6.94029,0l0,6.7804l-6.94029,0l0,6.6098l-7.11942,0l0,-6.6098l-6.94029,0l0,-6.7804z" stroke-width="1.5" fill="#ff0000" stroke="#ff0000"/>

    <g>
        <path fill="#0000ff" stroke="#0000ff" stroke-width="0" stroke-opacity="null" fill-opacity="null" d="m183.35295,318.58818l3.41173,8.82353l-90.58823,12.94118l87.1765,-21.76471z" id="svg_32"/>
        <path stroke="#0000ff" fill="#0000ff" stroke-width="0" stroke-opacity="null" fill-opacity="null" d="m330.36607,319.9444l-3.44972,8.82353l91.59695,12.94118l-88.14722,-21.76471l-0.00001,0z" id="svg_44" transform="rotate(1.2250925302505493 372.714843750001,330.8267517089844) "/>        
    </g>
</svg>    